<svg width="32" height="32" viewBox="0 0 32 32" fill="none" xmlns="http://www.w3.org/2000/svg">
<path fill-rule="evenodd" clip-rule="evenodd" d="M16 28C22.6274 28 28 22.6274 28 16C28 9.37258 22.6274 4 16 4C9.37258 4 4 9.37258 4 16C4 22.6274 9.37258 28 16 28ZM22.5404 13.4684C22.9334 13.0804 22.9374 12.4472 22.5494 12.0542C22.1613 11.6612 21.5282 11.6572 21.1352 12.0453L14.2829 18.811L10.8647 15.4359C10.4717 15.0479 9.83856 15.0519 9.45052 15.4449C9.06249 15.8379 9.06651 16.471 9.45951 16.8591L13.5803 20.9279C13.9698 21.3124 14.5961 21.3124 14.9855 20.9279L22.5404 13.4684Z" fill="#212941"/>
</svg>
