<svg width="24" height="24" viewBox="0 0 24 24" fill="none" xmlns="http://www.w3.org/2000/svg">
<path fill-rule="evenodd" clip-rule="evenodd" d="M17.5 20H5.5V19.9745C2.9735 19.7235 1 17.593 1 15C1 12.4065 2.974 10.2755 5.501 10.0255C5.501 10.0165 5.5 10.009 5.5 10C5.5 6.6865 8.1865 4 11.5 4C14.4735 4 16.9355 6.1655 17.4105 9.0045C17.441 9.004 17.4695 9 17.5 9C20.5375 9 23 11.4625 23 14.5C23 17.5375 20.5375 20 17.5 20ZM17.5 10C17.332 10 17.1665 10.0105 17.0035 10.03L17.0025 10.0275C16.996 10.028 16.991 10.0315 16.9845 10.0315C16.71 10.0315 16.488 9.81 16.4855 9.5365L16.4765 9.5355C16.2415 6.9915 14.1045 5 11.5 5C8.7385 5 6.5 7.2385 6.5 10C6.5 10.1485 6.5105 10.2935 6.524 10.438L6.519 10.4395C6.5215 10.46 6.531 10.4785 6.531 10.5C6.531 10.7715 6.314 10.9895 6.0445 10.997L6.0425 11.004C6.0285 11.0035 6.0145 11 6 11C3.791 11 2 12.791 2 15C2 17.0395 3.5275 18.719 5.5 18.9655V19H17.5C19.9855 19 22 16.9855 22 14.5C22 12.0145 19.9855 10 17.5 10Z" fill="#212941"/>
<path fill-rule="evenodd" clip-rule="evenodd" d="M11.397 10.8118C11.5684 10.6404 11.8464 10.6404 12.0178 10.8118L13.4813 12.2752C13.6527 12.4467 13.6527 12.7246 13.4813 12.8961C13.3098 13.0675 13.0318 13.0675 12.8604 12.8961L12.1464 12.1821V15.8052C12.1464 16.0476 11.9499 16.2442 11.7074 16.2442C11.4649 16.2442 11.2684 16.0476 11.2684 15.8052V12.1821L10.5544 12.8961C10.383 13.0675 10.105 13.0675 9.93356 12.8961C9.76211 12.7246 9.76211 12.4467 9.93356 12.2752L11.397 10.8118Z" fill="#212941"/>
</svg>
