<svg width="24" height="24" viewBox="0 0 24 24" fill="none" xmlns="http://www.w3.org/2000/svg">
<circle cx="12" cy="12" r="9" fill="#212941"/>
<path d="M11.0233 13.8387C11.0233 13.3024 11.1 12.875 11.2535 12.5565C11.407 12.2379 11.7093 11.8891 12.1605 11.5101C12.6163 11.127 12.9047 10.8548 13.0256 10.6935C13.2116 10.4476 13.3047 10.1815 13.3047 9.89516C13.3047 9.51613 13.1953 9.22782 12.9767 9.03024C12.7628 8.82863 12.4465 8.72782 12.0279 8.72782C11.6279 8.72782 11.3047 8.82661 11.0581 9.02419C10.8163 9.21774 10.6953 9.48185 10.6953 9.81653H9C9.0093 9.10282 9.28837 8.53831 9.83721 8.12298C10.3907 7.70766 11.1209 7.5 12.0279 7.5C12.9628 7.5 13.6907 7.70565 14.2116 8.11694C14.7372 8.52823 15 9.10282 15 9.84073C15 10.498 14.6465 11.1452 13.9395 11.7823L13.0814 12.5141C12.7744 12.8165 12.6163 13.2581 12.607 13.8387H11.0233ZM10.9047 15.7198C10.9047 15.4819 10.9907 15.2903 11.1628 15.1452C11.3349 14.996 11.5674 14.9214 11.8605 14.9214C12.1581 14.9214 12.393 14.998 12.5651 15.1512C12.7372 15.3004 12.8233 15.4899 12.8233 15.7198C12.8233 15.9415 12.7395 16.127 12.5721 16.2762C12.4047 16.4254 12.1674 16.5 11.8605 16.5C11.5535 16.5 11.3163 16.4254 11.1488 16.2762C10.986 16.127 10.9047 15.9415 10.9047 15.7198Z" fill="white"/>
</svg>
