<svg width="24" height="24" viewBox="0 0 24 24" fill="none" xmlns="http://www.w3.org/2000/svg">
<path fill-rule="evenodd" clip-rule="evenodd" d="M2 4.75C2 4.05964 2.55964 3.5 3.25 3.5H20.75C21.4404 3.5 22 4.05964 22 4.75C22 5.44036 21.4404 6 20.75 6H3.25C2.55964 6 2 5.44036 2 4.75Z" fill="#212941"/>
<path fill-rule="evenodd" clip-rule="evenodd" d="M2 11.75C2 11.0596 2.55964 10.5 3.25 10.5H20.75C21.4404 10.5 22 11.0596 22 11.75C22 12.4404 21.4404 13 20.75 13H3.25C2.55964 13 2 12.4404 2 11.75Z" fill="#212941"/>
<path fill-rule="evenodd" clip-rule="evenodd" d="M2 18.75C2 18.0596 2.55964 17.5 3.25 17.5H20.75C21.4404 17.5 22 18.0596 22 18.75C22 19.4404 21.4404 20 20.75 20H3.25C2.55964 20 2 19.4404 2 18.75Z" fill="#212941"/>
</svg>
