<svg width="24" height="24" viewBox="0 0 24 24" fill="none" xmlns="http://www.w3.org/2000/svg">
<path d="M15.6189 12.5426C16.212 12.9063 16.83 13.2253 17.382 13.6338C19.4433 15.1606 20.629 17.2186 20.9821 19.7562C21.0597 20.3101 20.7975 20.767 20.3175 20.9392C19.8707 21.1003 19.3362 20.9198 19.0939 20.5012C19.0086 20.347 18.9538 20.178 18.9324 20.0031C18.517 16.8355 16.0934 14.4045 12.9119 13.973C9.06996 13.4519 5.5151 16.2032 5.06555 20.0442C4.99586 20.6442 4.49784 21.0546 3.91583 20.9936C3.33381 20.9327 2.94011 20.4352 3.0075 19.8181C3.12566 18.7147 3.45654 17.6446 3.98183 16.6671C4.96001 14.8446 6.39158 13.5042 8.27655 12.646C8.31092 12.6282 8.34435 12.6087 8.37671 12.5874C5.79203 10.3475 6.0228 6.52495 8.22163 4.47336C10.3097 2.52701 13.6352 2.49747 15.7255 4.46136C16.9015 5.56631 17.4951 6.94312 17.4642 8.55855C17.4337 10.162 16.7751 11.4954 15.6189 12.5426ZM11.9763 5.04892C10.0761 5.05999 8.55395 6.58911 8.56687 8.47316C8.57979 10.3572 10.114 11.8651 12.0165 11.8572C13.8807 11.8494 15.432 10.288 15.4112 8.433C15.3918 6.56003 13.8465 5.0383 11.9763 5.04892Z" fill="#212941"/>
</svg>
