<svg width="24" height="24" viewBox="0 0 24 24" fill="none" xmlns="http://www.w3.org/2000/svg">
<path d="M20.1568 12.6604C19.9976 12.4779 19.9099 12.2433 19.9099 12.0004C19.9099 11.7575 19.9976 11.5229 20.1568 11.3404L21.4271 9.90038C21.567 9.74305 21.654 9.54509 21.6754 9.33489C21.6967 9.12469 21.6515 8.91307 21.5461 8.73038L19.5613 5.27038C19.457 5.0879 19.2982 4.94326 19.1075 4.85707C18.9168 4.77088 18.704 4.74754 18.4994 4.79038L16.6336 5.17038C16.3962 5.21981 16.1491 5.17997 15.9388 5.05838C15.7286 4.93679 15.5698 4.74187 15.4924 4.51038L14.887 2.68038C14.8204 2.48176 14.6936 2.30925 14.5244 2.18723C14.3552 2.0652 14.1522 1.99984 13.9442 2.00038H9.97448C9.75807 1.989 9.54391 2.04931 9.3647 2.1721C9.1855 2.29489 9.05111 2.4734 8.98206 2.68038L8.4263 4.51038C8.34889 4.74187 8.19008 4.93679 7.97982 5.05838C7.76957 5.17997 7.52242 5.21981 7.28501 5.17038L5.36964 4.79038C5.17567 4.76276 4.97793 4.79361 4.80132 4.87902C4.62472 4.96444 4.47715 5.10061 4.37721 5.27038L2.39236 8.73038C2.28435 8.91103 2.23578 9.12147 2.25361 9.33161C2.27143 9.54174 2.35473 9.74082 2.49161 9.90038L3.75198 11.3404C3.91109 11.5229 3.99883 11.7575 3.99883 12.0004C3.99883 12.2433 3.91109 12.4779 3.75198 12.6604L2.49161 14.1004C2.35473 14.2599 2.27143 14.459 2.25361 14.6692C2.23578 14.8793 2.28435 15.0897 2.39236 15.2704L4.37721 18.7304C4.48151 18.9129 4.64032 19.0575 4.831 19.1437C5.02168 19.2299 5.23449 19.2532 5.43911 19.2104L7.30486 18.8304C7.54227 18.781 7.78942 18.8208 7.99967 18.9424C8.20993 19.064 8.36874 19.2589 8.44615 19.4904L9.05153 21.3204C9.12058 21.5274 9.25497 21.7059 9.43417 21.8287C9.61338 21.9515 9.82754 22.0118 10.044 22.0004H14.0136C14.2217 22.0009 14.4247 21.9356 14.5938 21.8135C14.763 21.6915 14.8899 21.519 14.9565 21.3204L15.5618 19.4904C15.6392 19.2589 15.7981 19.064 16.0083 18.9424C16.2186 18.8208 16.4657 18.781 16.7031 18.8304L18.5689 19.2104C18.7735 19.2532 18.9863 19.2299 19.177 19.1437C19.3677 19.0575 19.5265 18.9129 19.6308 18.7304L21.6156 15.2704C21.721 15.0877 21.7662 14.8761 21.7448 14.6659C21.7234 14.4557 21.6365 14.2577 21.4965 14.1004L20.1568 12.6604ZM18.678 14.0004L19.472 14.9004L18.2017 17.1204L17.0306 16.8804C16.3159 16.7332 15.5723 16.8555 14.9412 17.2242C14.31 17.5929 13.8352 18.1822 13.6068 18.8804L13.2296 20.0004H10.689L10.3318 18.8604C10.1034 18.1622 9.62851 17.5729 8.99735 17.2042C8.36619 16.8355 7.62266 16.7132 6.90789 16.8604L5.73683 17.1004L4.44668 14.8904L5.24062 13.9904C5.72885 13.4404 5.99877 12.7283 5.99877 11.9904C5.99877 11.2525 5.72885 10.5404 5.24062 9.99038L4.44668 9.09038L5.71698 6.89038L6.88804 7.13038C7.60281 7.27761 8.34634 7.15526 8.9775 6.78658C9.60866 6.4179 10.0835 5.82854 10.3119 5.13038L10.689 4.00038H13.2296L13.6068 5.14038C13.8352 5.83854 14.31 6.4279 14.9412 6.79658C15.5723 7.16526 16.3159 7.28761 17.0306 7.14038L18.2017 6.90038L19.472 9.12038L18.678 10.0204C18.1953 10.5691 17.9287 11.2771 17.9287 12.0104C17.9287 12.7437 18.1953 13.4516 18.678 14.0004ZM11.9593 8.00038C11.1742 8.00038 10.4067 8.23498 9.75389 8.67451C9.10107 9.11403 8.59227 9.73874 8.29181 10.4696C7.99135 11.2006 7.91274 12.0048 8.06591 12.7807C8.21908 13.5567 8.59716 14.2694 9.15233 14.8288C9.7075 15.3882 10.4148 15.7692 11.1849 15.9235C11.9549 16.0779 12.7531 15.9987 13.4785 15.6959C14.2038 15.3932 14.8238 14.8805 15.26 14.2227C15.6962 13.5649 15.929 12.7915 15.929 12.0004C15.929 10.9395 15.5108 9.9221 14.7663 9.17196C14.0219 8.42181 13.0122 8.00038 11.9593 8.00038ZM11.9593 14.0004C11.5668 14.0004 11.183 13.8831 10.8566 13.6633C10.5302 13.4436 10.2758 13.1312 10.1256 12.7657C9.97534 12.4003 9.93604 11.9982 10.0126 11.6102C10.0892 11.2222 10.2782 10.8659 10.5558 10.5862C10.8334 10.3065 11.1871 10.116 11.5721 10.0388C11.9571 9.96164 12.3562 10.0012 12.7189 10.1526C13.0816 10.304 13.3916 10.5603 13.6097 10.8892C13.8278 11.2181 13.9442 11.6048 13.9442 12.0004C13.9442 12.5308 13.7351 13.0395 13.3628 13.4146C12.9906 13.7897 12.4857 14.0004 11.9593 14.0004Z" fill="#212941"/>
</svg>
