<svg width="1460" height="96" viewBox="0 0 1460 96" fill="none" xmlns="http://www.w3.org/2000/svg">
<path d="M77.8125 57H65.3838V54.8799L71.541 48.1641C72.4297 47.1738 73.0602 46.3486 73.4326 45.6885C73.8135 45.0199 74.0039 44.3512 74.0039 43.6826C74.0039 42.8024 73.7542 42.0915 73.2549 41.5498C72.764 41.0081 72.0996 40.7373 71.2617 40.7373C70.263 40.7373 69.4886 41.042 68.9385 41.6514C68.3883 42.2607 68.1133 43.0944 68.1133 44.1523H65.0283C65.0283 43.0267 65.2822 42.0153 65.79 41.1182C66.3063 40.2126 67.0384 39.5101 67.9863 39.0107C68.9427 38.5114 70.043 38.2617 71.2871 38.2617C73.0814 38.2617 74.4948 38.7145 75.5273 39.6201C76.5684 40.5173 77.0889 41.7614 77.0889 43.3525C77.0889 44.2751 76.8265 45.2441 76.3018 46.2598C75.7855 47.2669 74.9349 48.4137 73.75 49.7002L69.2305 54.5371H77.8125V57ZM90.5967 50.4111H92.8945V52.8867H90.5967V57H87.5117V52.8867H79.5264L79.4375 51.0078L87.4102 38.5156H90.5967V50.4111ZM82.6748 50.4111H87.5117V42.6924L87.2832 43.0986L82.6748 50.4111ZM100.067 47.7832L102.683 43.2637H106.11L101.908 50.0303L106.25 57H102.848L100.105 52.3027L97.376 57H93.9482L98.29 50.0303L94.1006 43.2637H97.5029L100.067 47.7832ZM120.443 57H108.015V54.8799L114.172 48.1641C115.061 47.1738 115.691 46.3486 116.063 45.6885C116.444 45.0199 116.635 44.3512 116.635 43.6826C116.635 42.8024 116.385 42.0915 115.886 41.5498C115.395 41.0081 114.73 40.7373 113.893 40.7373C112.894 40.7373 112.119 41.042 111.569 41.6514C111.019 42.2607 110.744 43.0944 110.744 44.1523H107.659C107.659 43.0267 107.913 42.0153 108.421 41.1182C108.937 40.2126 109.669 39.5101 110.617 39.0107C111.574 38.5114 112.674 38.2617 113.918 38.2617C115.712 38.2617 117.126 38.7145 118.158 39.6201C119.199 40.5173 119.72 41.7614 119.72 43.3525C119.72 44.2751 119.457 45.2441 118.933 46.2598C118.416 47.2669 117.566 48.4137 116.381 49.7002L111.861 54.5371H120.443V57ZM133.228 50.4111H135.525V52.8867H133.228V57H130.143V52.8867H122.157L122.068 51.0078L130.041 38.5156H133.228V50.4111ZM125.306 50.4111H130.143V42.6924L129.914 43.0986L125.306 50.4111Z" fill="#616980"/>
<rect opacity="0.4" x="64" y="79" width="1332" height="1" fill="#AFAFAF"/>
</svg>
