<svg width="24" height="24" viewBox="0 0 24 24" fill="none" xmlns="http://www.w3.org/2000/svg">
<path d="M8.5 19.8C8.88182 19.8 9.05045 19.6116 9.26364 19.3881L11.3 17.2522C11.3 17.2522 10.1994 15.9002 9.2 15.6" fill="#212941"/>
<path d="M8.24545 19.8C7.62691 19.8 7.73207 19.5837 7.51873 19.0381L7.1 15.6C7.1 15.6 8.41457 15.364 9.2 15.6C10.1994 15.9002 11.3 17.2522 11.3 17.2522L9.26364 19.3881C9.05045 19.6116 8.88182 19.8 8.5 19.8H8.24545Z" fill="#212941"/>
<path d="M9.72688 15.0109L17.5094 20.9521C18.3975 21.4584 19.0384 21.1962 19.2596 20.1002L22.4275 4.675C22.7518 3.33141 21.9319 2.72181 21.0822 3.12039L2.48043 10.5319C1.2107 11.0582 1.21827 11.7902 2.24902 12.1163L7.02264 13.656L18.0741 6.45161C18.5958 6.12469 19.0747 6.30029 18.6817 6.66079" fill="#212941"/>
</svg>
