<svg width="24" height="24" viewBox="0 0 24 24" fill="none" xmlns="http://www.w3.org/2000/svg">
<path d="M17.6191 10.6483C17.6342 10.7318 17.6285 10.8178 17.6023 10.8986C17.5762 10.9793 17.5305 11.0524 17.4692 11.1112C17.408 11.17 17.3332 11.2128 17.2515 11.2357C17.1698 11.2587 17.0836 11.261 17.0007 11.2426C16.9179 11.2242 16.8408 11.1856 16.7765 11.1302C16.7122 11.0748 16.6625 11.0044 16.632 10.9251C16.6014 10.8459 16.591 10.7604 16.6015 10.6762C16.612 10.5919 16.6432 10.5116 16.6923 10.4423L16.7953 9.51546C16.7957 8.89551 16.6561 8.28347 16.387 7.72495C16.118 7.16644 15.7263 6.67586 15.2412 6.28979C14.7562 5.90371 14.1902 5.63211 13.5856 5.49521C12.9809 5.35831 12.3532 5.35966 11.7491 5.49915C11.6418 5.50799 11.5343 5.48293 11.442 5.42751C11.3496 5.37209 11.2769 5.28909 11.2342 5.1902C11.2342 4.88126 11.3372 4.67529 11.5432 4.57231L12.676 4.46933C13.4309 4.48424 14.1732 4.665 14.8505 4.99878C15.5278 5.33257 16.1233 5.81122 16.595 6.40081C17.0667 6.99041 17.4029 7.67652 17.5799 8.41054C17.7569 9.14455 17.7703 9.90851 17.6191 10.6483ZM14.9416 9.61845C14.9416 9.92739 14.7356 10.1334 14.5296 10.1334C14.3931 10.1334 14.2621 10.0791 14.1655 9.98254C14.069 9.88598 14.0147 9.75501 14.0147 9.61845C14.0147 8.89757 13.3968 8.17669 12.676 8.17669C12.5555 8.17912 12.438 8.13923 12.3439 8.06396C12.2498 7.9887 12.1851 7.88282 12.1611 7.76476C12.1611 7.45582 12.367 7.24985 12.676 7.24985C13.9118 7.24985 14.9416 8.27968 14.9416 9.61845ZM12.676 6.83792H12.264C12.1436 6.84035 12.0261 6.80046 11.932 6.72519C11.8379 6.64993 11.7732 6.54405 11.7491 6.42599C11.7491 6.22003 11.7491 6.01406 12.0581 5.91108H12.676C13.2006 5.92056 13.7173 6.04132 14.1919 6.26537C14.6664 6.48942 15.088 6.81167 15.4287 7.21079C15.7694 7.60991 16.0215 8.07682 16.1683 8.58063C16.3151 9.08444 16.3533 9.61369 16.2803 10.1334C16.2563 10.2514 16.1916 10.3573 16.0975 10.4326C16.0034 10.5078 15.8859 10.5477 15.7654 10.5453C15.6474 10.5212 15.5415 10.4565 15.4662 10.3624C15.391 10.2683 15.3511 10.1508 15.3535 10.0304V9.61845C15.3535 8.07371 14.2207 6.83792 12.676 6.83792ZM17.0012 15.4884C16.6923 16.0034 16.2803 16.3123 15.6625 16.5183C15.3535 16.7242 14.9416 16.7242 14.5296 16.5183C11.3153 15.2393 8.6538 12.8694 7.01193 9.82441L6.18807 7.76476V7.35283C6.18807 6.32301 7.01193 5.60213 7.83579 5.39617C8.14474 5.39617 8.45368 5.39617 8.65965 5.70512C9.38052 6.32301 9.89544 7.04389 10.3074 7.97073C10.4103 8.27968 10.3074 8.58862 10.1014 8.89757L9.89544 9.00055C9.17456 9.51546 9.07158 10.0304 9.48351 10.7513C10.0701 11.9774 11.1009 12.9346 12.367 13.4288C12.7789 13.6348 13.0879 13.4288 13.3968 13.2228V13.1198C13.9118 12.193 14.7356 12.296 15.4565 12.8109L16.6923 13.8407C17.4132 14.3556 17.4132 14.8705 17.0012 15.4884ZM21.3265 5.91108C21.0175 4.67529 20.2967 3.64547 19.2668 2.82161C18.0214 2.03373 16.6125 1.54061 15.1475 1.37985C13.4395 1.14031 11.7064 1.14031 9.99842 1.37985C8.45368 1.37985 7.42386 1.6888 6.39404 2.20371C4.33439 3.23354 3.20158 4.67529 2.78965 6.73494C2.64345 7.62193 2.54034 8.5155 2.4807 9.41248C2.27474 11.3691 2.4807 13.1198 2.89263 14.7676C3.22474 16.1588 4.07092 17.3729 5.26123 18.166L6.29105 18.5779L6.90895 18.7839L7.01193 18.9898V22.8002H7.83579L8.04175 22.6972L10.9253 19.7107V19.5048L11.2342 19.4018L14.3237 19.2988C15.4565 19.2988 16.8982 19.0928 18.237 18.5779C19.3698 18.063 20.2967 17.2391 20.8116 16.1063C21.4295 15.0765 21.7384 13.7377 21.8414 12.399C22.0474 9.92739 21.8414 7.76476 21.3265 5.8081" fill="#212941"/>
</svg>
