<svg width="24" height="24" viewBox="0 0 24 24" fill="none" xmlns="http://www.w3.org/2000/svg">
<path d="M12.1813 2C6.75915 2 2.36312 6.36165 2.36312 11.7425C2.36312 13.5831 2.87795 15.3046 3.77201 16.7732L2 22L7.43589 20.2731C8.8425 21.0448 10.4602 21.485 12.1813 21.485C17.6042 21.485 22 17.1227 22 11.7425C22 6.36165 17.6042 2 12.1813 2ZM17.0636 15.4424C16.8326 16.015 15.7879 16.5376 15.327 16.5617C14.8666 16.5861 14.8534 16.9186 12.3431 15.828C9.83304 14.7372 8.3229 12.085 8.20384 11.9142C8.08469 11.744 7.23152 10.5282 7.27754 9.3046C7.32388 8.0808 7.99393 7.50344 8.23308 7.2633C8.47196 7.02281 8.74585 6.97973 8.91308 6.97701C9.11076 6.97379 9.23879 6.97112 9.38509 6.97652C9.53125 6.98205 9.7508 6.94594 9.94089 7.45147C10.1309 7.95696 10.5857 9.19938 10.6438 9.32598C10.702 9.45272 10.7379 9.59946 10.6484 9.76219C10.5586 9.92527 10.5126 10.0271 10.3823 10.1677C10.2513 10.3082 10.1067 10.4821 9.98978 10.5895C9.85942 10.7085 9.72326 10.8383 9.86031 11.0926C9.99728 11.3467 10.4698 12.1799 11.1897 12.8665C12.115 13.7492 12.9129 14.0419 13.1584 14.1753C13.4046 14.3094 13.5515 14.2945 13.7042 14.1338C13.8562 13.9732 14.3577 13.4309 14.5344 13.1888C14.7109 12.946 14.8764 12.9936 15.1032 13.0848C15.3299 13.1764 16.5388 13.8239 16.785 13.9576C17.031 14.0911 17.1954 14.1598 17.2542 14.2657C17.313 14.3719 17.2945 14.8697 17.0636 15.4424Z" fill="#212941"/>
</svg>
