<svg class="support--svg"
     preserveAspectRatio="xMidYMid meet"  width="380" height="368" viewBox="0 0 380 368" fill="none" xmlns="http://www.w3.org/2000/svg">
<path d="M163.927 368C243.859 368 308.658 363.972 308.658 359.003C308.658 354.033 243.859 350.005 163.927 350.005C83.9937 350.005 19.1953 354.033 19.1953 359.003C19.1953 363.972 83.9937 368 163.927 368Z" fill="#AEC2FF"/>
<path opacity="0.8" d="M163.927 368C243.859 368 308.658 363.972 308.658 359.003C308.658 354.033 243.859 350.005 163.927 350.005C83.9937 350.005 19.1953 354.033 19.1953 359.003C19.1953 363.972 83.9937 368 163.927 368Z" fill="white"/>
<path d="M272.684 16.8584H127.157C117.11 16.8584 108.965 24.9863 108.965 35.0125V341.605C108.965 351.632 117.11 359.76 127.157 359.76H272.684C282.731 359.76 290.876 351.632 290.876 341.605V35.0125C290.876 24.9863 282.731 16.8584 272.684 16.8584Z" fill="#212941"/>
<path d="M282.788 54.5117H117.047V322.105H282.788V54.5117Z" fill="white" stroke="#212941" stroke-width="1.33739" stroke-miterlimit="10"/>
<path d="M225.322 162.869C239.352 148.868 239.352 126.169 225.322 112.168C211.293 98.168 188.546 98.168 174.516 112.168C160.487 126.169 160.487 148.868 174.516 162.869C188.546 176.869 211.293 176.869 225.322 162.869Z" fill="#AEC2FF"/>
<path d="M247.086 305.279H152.764C152.552 305.28 152.342 305.24 152.145 305.16C151.949 305.079 151.77 304.961 151.62 304.812C151.469 304.662 151.35 304.485 151.268 304.289C151.187 304.094 151.145 303.884 151.145 303.672C151.143 303.459 151.184 303.249 151.265 303.052C151.346 302.855 151.466 302.677 151.616 302.526C151.767 302.376 151.946 302.257 152.143 302.176C152.34 302.095 152.551 302.054 152.764 302.056H247.086C247.298 302.056 247.508 302.098 247.704 302.179C247.9 302.26 248.078 302.379 248.228 302.53C248.378 302.68 248.496 302.858 248.576 303.054C248.657 303.25 248.698 303.46 248.696 303.672C248.696 304.098 248.527 304.507 248.225 304.808C247.923 305.11 247.513 305.279 247.086 305.279Z" fill="#AEC2FF"/>
<path d="M250.157 193.521H149.684C147.611 193.521 145.93 195.199 145.93 197.268V209.088C145.93 211.157 147.611 212.834 149.684 212.834H250.157C252.231 212.834 253.912 211.157 253.912 209.088V197.268C253.912 195.199 252.231 193.521 250.157 193.521Z" fill="#AEC2FF"/>
<path d="M250.157 229.643H149.684C147.611 229.643 145.93 231.32 145.93 233.389V245.209C145.93 247.278 147.611 248.955 149.684 248.955H250.157C252.231 248.955 253.912 247.278 253.912 245.209V233.389C253.912 231.32 252.231 229.643 250.157 229.643Z" fill="#AEC2FF"/>
<path d="M217.808 155.401L207.237 149.327V144.31C208.768 142.462 209.876 140.303 210.486 137.984C210.85 138.113 211.233 138.18 211.619 138.181C212.93 138.181 213.763 134.126 213.903 131.229C215.43 128.006 213.351 126.118 213.351 126.118C213.351 126.118 214.212 125.259 214.784 121.811C215.355 118.363 212.771 119.802 210.758 116.644C208.745 113.486 207.303 110.048 200.692 110.048C198.871 109.988 197.074 110.477 195.534 111.45C193.995 112.423 192.784 113.836 192.06 115.504C190.414 115.51 188.775 115.701 187.172 116.074C185.15 116.644 184.579 123.25 186.302 125.838C187.073 127.253 187.484 128.834 187.5 130.444C187.041 129.884 186.564 129.734 186.302 131.005C185.731 133.873 188.034 137.891 188.034 137.891L189.223 137.555C189.822 140.033 190.978 142.343 192.603 144.31V149.327L182.032 155.401C180.798 156.112 179.772 157.134 179.059 158.366C178.346 159.598 177.97 160.995 177.969 162.417V165.893C184.256 170.74 191.976 173.369 199.92 173.369C207.864 173.369 215.584 170.74 221.871 165.893V162.417C221.872 160.994 221.497 159.597 220.783 158.365C220.07 157.133 219.044 156.11 217.808 155.401Z" fill="#212941"/>
<path d="M159.609 244.154C159.366 244.15 159.135 244.053 158.963 243.883C158.871 243.801 158.797 243.7 158.747 243.587C158.697 243.474 158.672 243.352 158.673 243.229C158.675 243.06 158.724 242.896 158.813 242.752L160.498 240.061L157.212 240.164C157.088 240.172 156.964 240.153 156.848 240.11C156.732 240.066 156.626 239.999 156.538 239.912C156.385 239.741 156.301 239.52 156.301 239.291C156.301 239.061 156.385 238.84 156.538 238.669C156.624 238.579 156.729 238.509 156.846 238.463C156.962 238.418 157.087 238.399 157.212 238.408L160.451 238.529L158.785 235.848C158.694 235.702 158.646 235.533 158.644 235.362C158.644 235.238 158.669 235.116 158.719 235.003C158.769 234.891 158.843 234.79 158.935 234.708C159.107 234.537 159.338 234.44 159.581 234.437C159.74 234.438 159.896 234.484 160.031 234.57C160.165 234.656 160.272 234.778 160.339 234.923L161.94 237.81L163.523 234.941C163.598 234.788 163.713 234.659 163.857 234.566C164 234.474 164.166 234.423 164.337 234.418C164.455 234.419 164.572 234.444 164.68 234.492C164.788 234.54 164.885 234.611 164.964 234.698C165.136 234.876 165.23 235.115 165.227 235.362C165.226 235.522 165.184 235.68 165.105 235.819L163.41 238.529L166.697 238.408C166.821 238.399 166.946 238.418 167.063 238.463C167.179 238.509 167.284 238.579 167.371 238.669C167.53 238.835 167.618 239.056 167.614 239.286C167.613 239.517 167.527 239.741 167.371 239.912C167.282 239.999 167.177 240.066 167.061 240.11C166.944 240.153 166.82 240.172 166.697 240.164L163.391 240.061L165.039 242.724C165.132 242.873 165.18 243.044 165.18 243.219C165.18 243.467 165.081 243.705 164.906 243.88C164.73 244.055 164.492 244.154 164.243 244.154C164.083 244.152 163.927 244.103 163.793 244.013C163.66 243.923 163.556 243.797 163.494 243.649L161.931 240.846L160.377 243.649C160.308 243.796 160.199 243.92 160.064 244.009C159.928 244.098 159.771 244.148 159.609 244.154Z" fill="#212941"/>
<path d="M174.794 244.154C174.552 244.15 174.321 244.053 174.148 243.883C174.056 243.801 173.983 243.7 173.933 243.587C173.883 243.474 173.857 243.352 173.858 243.229C173.861 243.06 173.91 242.896 173.999 242.752L175.684 240.061L172.407 240.164C172.282 240.17 172.157 240.15 172.04 240.107C171.922 240.064 171.815 239.997 171.723 239.912C171.599 239.784 171.516 239.622 171.486 239.446C171.455 239.271 171.478 239.09 171.552 238.928C171.626 238.765 171.747 238.629 171.899 238.536C172.052 238.443 172.229 238.399 172.407 238.408L175.637 238.529L173.971 235.848C173.88 235.702 173.831 235.533 173.83 235.362C173.829 235.238 173.855 235.116 173.905 235.003C173.955 234.891 174.028 234.79 174.12 234.708C174.292 234.537 174.524 234.44 174.766 234.437C174.926 234.438 175.082 234.484 175.216 234.57C175.35 234.656 175.457 234.778 175.525 234.923L177.126 237.81L178.708 234.941C178.783 234.788 178.899 234.659 179.042 234.566C179.186 234.474 179.352 234.423 179.523 234.418C179.641 234.417 179.759 234.442 179.867 234.491C179.975 234.539 180.071 234.61 180.15 234.698C180.237 234.786 180.305 234.889 180.352 235.003C180.399 235.117 180.422 235.239 180.422 235.362C180.418 235.523 180.373 235.681 180.29 235.819L178.596 238.529L181.892 238.426C182.015 238.418 182.138 238.437 182.253 238.482C182.368 238.528 182.472 238.598 182.556 238.688C182.716 238.853 182.803 239.075 182.8 239.305C182.799 239.536 182.712 239.759 182.556 239.931C182.47 240.017 182.366 240.085 182.251 240.128C182.137 240.172 182.014 240.19 181.892 240.183L178.577 240.08L180.225 242.743C180.317 242.892 180.366 243.063 180.365 243.238C180.365 243.486 180.267 243.724 180.091 243.899C179.916 244.074 179.677 244.172 179.429 244.172C179.269 244.17 179.112 244.121 178.979 244.032C178.846 243.942 178.742 243.816 178.68 243.668L177.116 240.865L175.562 243.668C175.491 243.811 175.381 243.932 175.246 244.017C175.111 244.103 174.955 244.15 174.794 244.154Z" fill="#212941"/>
<path d="M189.994 244.154C189.748 244.153 189.513 244.055 189.338 243.883C189.246 243.801 189.173 243.7 189.123 243.587C189.073 243.474 189.047 243.352 189.048 243.229C189.051 243.06 189.099 242.896 189.189 242.752L190.874 240.061L187.597 240.164C187.42 240.171 187.246 240.126 187.095 240.033C186.945 239.941 186.825 239.806 186.752 239.646C186.679 239.485 186.655 239.307 186.684 239.133C186.712 238.959 186.792 238.798 186.913 238.669C187.002 238.579 187.109 238.509 187.227 238.464C187.344 238.419 187.471 238.4 187.597 238.408L190.827 238.529L189.16 235.848C189.07 235.702 189.021 235.533 189.02 235.362C189.023 235.239 189.05 235.118 189.1 235.006C189.15 234.894 189.221 234.792 189.31 234.708C189.485 234.535 189.72 234.438 189.966 234.437C190.124 234.439 190.278 234.486 190.41 234.572C190.542 234.658 190.648 234.78 190.715 234.923L192.316 237.81L193.898 234.941C193.973 234.788 194.089 234.659 194.232 234.566C194.376 234.474 194.542 234.423 194.713 234.418C194.831 234.417 194.948 234.442 195.057 234.491C195.165 234.539 195.261 234.61 195.34 234.698C195.427 234.786 195.495 234.889 195.542 235.003C195.589 235.117 195.612 235.239 195.611 235.362C195.608 235.523 195.563 235.681 195.48 235.819L193.786 238.529L197.081 238.408C197.203 238.396 197.325 238.409 197.44 238.449C197.556 238.488 197.661 238.551 197.75 238.634C197.839 238.717 197.908 238.819 197.955 238.931C198.001 239.043 198.022 239.164 198.018 239.286C198.02 239.516 197.936 239.739 197.784 239.912C197.695 239.999 197.59 240.066 197.474 240.11C197.357 240.153 197.233 240.172 197.11 240.164L193.804 240.061L195.443 242.724C195.535 242.873 195.584 243.044 195.583 243.219C195.58 243.342 195.553 243.463 195.503 243.575C195.454 243.687 195.382 243.789 195.293 243.873C195.212 243.961 195.113 244.031 195.004 244.079C194.894 244.127 194.776 244.153 194.656 244.154C194.497 244.151 194.342 244.102 194.211 244.012C194.079 243.922 193.977 243.796 193.917 243.649L192.344 240.846L190.79 243.649C190.719 243.801 190.607 243.929 190.466 244.018C190.325 244.108 190.161 244.155 189.994 244.154Z" fill="#212941"/>
<path d="M205.179 244.154C204.933 244.153 204.698 244.055 204.523 243.883C204.347 243.71 204.246 243.475 204.242 243.229C204.24 243.061 204.285 242.895 204.374 242.752L206.059 240.061L202.782 240.164C202.657 240.17 202.532 240.15 202.415 240.107C202.297 240.064 202.19 239.997 202.098 239.912C201.946 239.741 201.861 239.52 201.861 239.291C201.861 239.061 201.946 238.84 202.098 238.669C202.189 238.582 202.296 238.514 202.413 238.469C202.531 238.424 202.656 238.403 202.782 238.408L206.021 238.529L204.364 235.848C204.273 235.702 204.225 235.533 204.224 235.362C204.227 235.239 204.254 235.118 204.304 235.006C204.353 234.894 204.425 234.792 204.514 234.708C204.688 234.535 204.924 234.438 205.169 234.437C205.329 234.438 205.485 234.484 205.619 234.57C205.753 234.656 205.86 234.778 205.928 234.923L207.519 237.81L209.102 234.941C209.177 234.788 209.292 234.659 209.436 234.566C209.58 234.474 209.746 234.423 209.916 234.418C210.035 234.417 210.152 234.442 210.26 234.491C210.368 234.539 210.465 234.61 210.544 234.698C210.63 234.786 210.699 234.889 210.746 235.003C210.792 235.117 210.816 235.239 210.815 235.362C210.812 235.523 210.767 235.681 210.684 235.819L208.989 238.529L212.285 238.408C212.406 238.396 212.529 238.409 212.644 238.449C212.759 238.488 212.865 238.551 212.954 238.634C213.042 238.717 213.112 238.819 213.158 238.931C213.205 239.043 213.226 239.164 213.221 239.286C213.223 239.516 213.14 239.739 212.987 239.912C212.899 239.999 212.794 240.066 212.677 240.11C212.561 240.153 212.437 240.172 212.313 240.164L209.008 240.061L210.647 242.724C210.739 242.873 210.788 243.044 210.787 243.219C210.788 243.343 210.763 243.465 210.713 243.578C210.662 243.69 210.589 243.791 210.497 243.873C210.415 243.961 210.317 244.031 210.207 244.079C210.098 244.127 209.98 244.153 209.86 244.154C209.701 244.151 209.546 244.102 209.415 244.012C209.283 243.922 209.181 243.796 209.12 243.649L207.548 240.846L205.993 243.649C205.922 243.804 205.807 243.934 205.662 244.023C205.517 244.113 205.349 244.158 205.179 244.154Z" fill="#212941"/>
<path d="M220.362 244.154C220.117 244.153 219.881 244.055 219.707 243.883C219.562 243.736 219.469 243.546 219.444 243.341C219.419 243.137 219.462 242.93 219.566 242.752L221.242 240.061L217.965 240.164C217.84 240.17 217.715 240.15 217.598 240.107C217.481 240.064 217.373 239.997 217.282 239.912C217.129 239.741 217.045 239.52 217.045 239.291C217.045 239.061 217.129 238.84 217.282 238.669C217.372 238.582 217.48 238.514 217.597 238.469C217.714 238.424 217.84 238.403 217.965 238.408L221.205 238.529L219.538 235.848C219.448 235.702 219.399 235.533 219.398 235.362C219.401 235.115 219.502 234.88 219.679 234.708C219.853 234.535 220.089 234.438 220.334 234.437C220.494 234.438 220.65 234.484 220.784 234.57C220.918 234.656 221.025 234.778 221.093 234.923L222.684 237.81L224.267 234.941C224.342 234.788 224.457 234.659 224.601 234.566C224.744 234.474 224.911 234.423 225.081 234.418C225.201 234.417 225.32 234.442 225.43 234.49C225.539 234.539 225.638 234.609 225.718 234.698C225.89 234.876 225.984 235.115 225.98 235.362C225.977 235.523 225.932 235.681 225.849 235.819L224.154 238.529L227.45 238.408C227.571 238.396 227.694 238.409 227.809 238.449C227.924 238.488 228.03 238.551 228.118 238.634C228.207 238.717 228.277 238.819 228.323 238.931C228.369 239.043 228.391 239.164 228.386 239.286C228.388 239.516 228.305 239.739 228.152 239.912C228.064 239.999 227.958 240.066 227.842 240.11C227.726 240.153 227.602 240.172 227.478 240.164L224.173 240.061L225.812 242.724C225.904 242.873 225.953 243.045 225.952 243.219C225.953 243.343 225.927 243.465 225.877 243.578C225.827 243.69 225.754 243.791 225.662 243.873C225.58 243.961 225.482 244.031 225.372 244.079C225.263 244.127 225.145 244.153 225.025 244.154C224.866 244.151 224.711 244.102 224.579 244.012C224.448 243.922 224.346 243.796 224.285 243.649L222.712 240.846L221.158 243.649C221.088 243.801 220.976 243.929 220.835 244.018C220.693 244.108 220.53 244.155 220.362 244.154Z" fill="#212941"/>
<path d="M235.55 244.154C235.308 244.15 235.076 244.053 234.904 243.883C234.812 243.801 234.738 243.7 234.688 243.587C234.638 243.474 234.613 243.352 234.614 243.229C234.617 243.06 234.665 242.896 234.754 242.752L236.43 240.061L233.153 240.164C233.033 240.173 232.912 240.157 232.798 240.117C232.684 240.077 232.579 240.013 232.491 239.931C232.403 239.848 232.333 239.748 232.286 239.637C232.239 239.526 232.215 239.407 232.217 239.286C232.216 239.172 232.238 239.058 232.282 238.952C232.325 238.847 232.389 238.75 232.47 238.669C232.556 238.579 232.661 238.509 232.778 238.463C232.894 238.418 233.019 238.399 233.144 238.408L236.383 238.529L234.717 235.848C234.626 235.702 234.577 235.533 234.576 235.362C234.58 235.115 234.681 234.88 234.857 234.708C235.032 234.535 235.267 234.438 235.513 234.437C235.672 234.438 235.828 234.484 235.962 234.57C236.097 234.656 236.204 234.778 236.271 234.923L237.863 237.81L239.454 234.941C239.529 234.79 239.643 234.661 239.785 234.569C239.926 234.477 240.091 234.424 240.26 234.418C240.379 234.417 240.498 234.442 240.608 234.49C240.718 234.539 240.816 234.609 240.896 234.698C241.068 234.876 241.162 235.115 241.158 235.362C241.158 235.522 241.116 235.68 241.037 235.819L239.342 238.529L242.628 238.408C242.753 238.399 242.878 238.418 242.995 238.463C243.111 238.509 243.216 238.579 243.303 238.669C243.462 238.835 243.55 239.056 243.546 239.286C243.545 239.517 243.459 239.741 243.303 239.912C243.214 239.999 243.109 240.066 242.992 240.11C242.876 240.153 242.752 240.172 242.628 240.164L239.323 240.061L240.962 242.724C241.054 242.873 241.103 243.045 241.102 243.219C241.099 243.466 240.998 243.701 240.821 243.873C240.651 244.047 240.419 244.148 240.175 244.154C240.016 244.151 239.861 244.102 239.73 244.012C239.598 243.922 239.496 243.796 239.436 243.649L237.863 240.846L236.308 243.649C236.241 243.795 236.135 243.919 236.001 244.008C235.867 244.097 235.711 244.148 235.55 244.154Z" fill="#212941"/>
<g style="mix-blend-mode:multiply">
<path d="M282.788 54.8662H117.047V65.228H282.788V54.8662Z" fill="#AEC2FF"/>
</g>
<path d="M217.94 35.7787H181.893C181.242 35.7787 180.618 35.5208 180.158 35.0617C179.698 34.6027 179.439 33.98 179.439 33.3308C179.439 32.6815 179.698 32.0589 180.158 31.5998C180.618 31.1407 181.242 30.8828 181.893 30.8828H217.94C218.59 30.8828 219.214 31.1407 219.674 31.5998C220.134 32.0589 220.393 32.6815 220.393 33.3308C220.393 33.98 220.134 34.6027 219.674 35.0617C219.214 35.5208 218.59 35.7787 217.94 35.7787Z" fill="#AEC2FF" stroke="#212941" stroke-width="1.33739" stroke-linecap="round" stroke-linejoin="round"/>
<path d="M209.746 337.222C209.748 335.281 209.173 333.383 208.093 331.768C207.014 330.153 205.478 328.895 203.681 328.151C201.885 327.407 199.907 327.212 197.999 327.59C196.091 327.969 194.339 328.903 192.963 330.276C191.588 331.648 190.651 333.397 190.272 335.301C189.893 337.205 190.089 339.178 190.834 340.972C191.579 342.765 192.841 344.297 194.459 345.374C196.077 346.451 197.979 347.025 199.924 347.023C202.528 347.021 205.025 345.988 206.867 344.15C208.708 342.312 209.744 339.821 209.746 337.222Z" fill="#AEC2FF"/>
<path d="M204.907 332.253H194.945V342.194H204.907V332.253Z" fill="#AEC2FF" stroke="#212941" stroke-width="1.33739" stroke-linecap="round" stroke-linejoin="round"/>
<path d="M318.591 224.411C318.591 224.411 305.539 191.316 317.158 187.383C329.255 183.281 328.721 205.135 328.253 215.787C327.27 238.547 324.752 242.78 322.87 237.22L318.591 224.411ZM314.668 250.226C318.254 254.898 319.265 250.058 312.795 228.204C309.762 217.926 303.17 197.137 293.058 204.939C283.349 212.414 306.457 239.509 306.457 239.509L314.668 250.226ZM307.739 269.193C311.157 272.221 311.222 268.399 303.105 252.618C299.294 245.228 291.232 230.269 284.632 237.669C278.293 244.807 299.893 262.158 299.893 262.158L307.739 269.193ZM300.249 291.748C303.666 294.785 303.732 290.954 295.614 275.182C291.804 267.792 283.742 252.824 277.141 260.233C270.84 267.39 292.375 284.741 292.375 284.741L300.249 291.748ZM321.877 245.835C316.409 247.965 320.754 250.282 343.59 250.217C354.301 250.217 376.172 249.731 371.51 237.856C367.044 226.447 334.517 240.976 334.517 240.976L321.877 245.835ZM315.651 261.009C309.865 262.008 313.666 265.148 336.062 269.614C346.558 271.716 368.083 275.593 365.883 263.073C363.776 251.002 329.002 258.794 329.002 258.794L315.651 261.009ZM308.685 279.536C303.76 280.246 306.906 282.984 325.735 287.282C334.564 289.3 352.681 293.084 351.108 282.405C349.61 272.127 320.023 277.939 320.023 277.939L308.685 279.536ZM303.395 296.7C298.573 297.924 301.99 300.316 321.184 302.596C330.173 303.661 348.589 305.511 345.902 295.056C343.309 285.021 314.509 293.906 314.509 293.906L303.395 296.7ZM331.615 227.214C328.806 233.492 334.639 232.539 354.469 215.273C363.757 207.172 382.389 190.223 367.634 181.786C353.468 173.676 338.234 212.806 338.234 212.806L331.615 227.214ZM304.125 319.059C301.157 320.787 304.069 321.46 317.683 318.75C324.068 317.489 337.054 314.686 332.663 309.155C328.412 303.829 310.998 315.041 310.998 315.041L304.125 319.059Z" fill="#AEC2FF"/>
<path opacity="0.3" d="M318.591 224.411C318.591 224.411 305.539 191.316 317.158 187.383C329.255 183.281 328.721 205.135 328.253 215.787C327.27 238.547 324.752 242.78 322.87 237.22L318.591 224.411ZM314.668 250.226C318.254 254.898 319.265 250.058 312.795 228.204C309.762 217.926 303.17 197.137 293.058 204.939C283.349 212.414 306.457 239.509 306.457 239.509L314.668 250.226ZM307.739 269.193C311.157 272.221 311.222 268.399 303.105 252.618C299.294 245.228 291.232 230.269 284.632 237.669C278.293 244.807 299.893 262.158 299.893 262.158L307.739 269.193ZM300.249 291.748C303.666 294.785 303.732 290.954 295.614 275.182C291.804 267.792 283.742 252.824 277.141 260.233C270.84 267.39 292.375 284.741 292.375 284.741L300.249 291.748ZM321.877 245.835C316.409 247.965 320.754 250.282 343.59 250.217C354.301 250.217 376.172 249.731 371.51 237.856C367.044 226.447 334.517 240.976 334.517 240.976L321.877 245.835ZM315.651 261.009C309.865 262.008 313.666 265.148 336.062 269.614C346.558 271.716 368.083 275.593 365.883 263.073C363.776 251.002 329.002 258.794 329.002 258.794L315.651 261.009ZM308.685 279.536C303.76 280.246 306.906 282.984 325.735 287.282C334.564 289.3 352.681 293.084 351.108 282.405C349.61 272.127 320.023 277.939 320.023 277.939L308.685 279.536ZM303.395 296.7C298.573 297.924 301.99 300.316 321.184 302.596C330.173 303.661 348.589 305.511 345.902 295.056C343.309 285.021 314.509 293.906 314.509 293.906L303.395 296.7ZM331.615 227.214C328.806 233.492 334.639 232.539 354.469 215.273C363.757 207.172 382.389 190.223 367.634 181.786C353.468 173.676 338.234 212.806 338.234 212.806L331.615 227.214ZM304.125 319.059C301.157 320.787 304.069 321.46 317.683 318.75C324.068 317.489 337.054 314.686 332.663 309.155C328.412 303.829 310.998 315.041 310.998 315.041L304.125 319.059Z" fill="white"/>
<path d="M324.349 239.82L322.074 202.045L324.349 239.82ZM317.149 252.284L302.768 219.797L317.149 252.284ZM354.264 242.838L319.799 247.771L354.264 242.838ZM309.696 269.793L291.036 245.903L309.696 269.793ZM312.973 262.468L338.684 263.758L312.973 262.468ZM306.887 280.791L326.549 282.734L306.887 280.791ZM302.14 292.432L292.375 277.773L302.14 292.432ZM301.017 297.609L324.134 297.824L301.017 297.609ZM296.336 340.887C296.49 340.875 296.634 340.803 296.736 340.685C296.838 340.568 296.889 340.416 296.879 340.261C295.409 318.229 303.948 282.145 317.645 252.527C326.4 233.597 360.715 196.392 361.08 196.018C361.19 195.908 361.252 195.758 361.252 195.603C361.252 195.447 361.19 195.297 361.08 195.187C361.026 195.133 360.962 195.089 360.891 195.06C360.82 195.031 360.744 195.016 360.668 195.016C360.591 195.016 360.515 195.031 360.445 195.06C360.374 195.089 360.31 195.133 360.256 195.187C359.909 195.561 325.454 232.906 316.625 252.004C302.674 282.342 294.248 317.772 295.746 340.336C295.757 340.485 295.824 340.624 295.933 340.726C296.043 340.828 296.186 340.885 296.336 340.887ZM324.34 240.399C324.495 240.39 324.639 240.32 324.743 240.204C324.846 240.089 324.9 239.937 324.892 239.783L322.655 201.989C322.651 201.912 322.632 201.836 322.599 201.767C322.566 201.697 322.519 201.635 322.462 201.584C322.404 201.532 322.337 201.493 322.264 201.468C322.191 201.443 322.114 201.432 322.037 201.438C321.882 201.447 321.737 201.517 321.634 201.633C321.53 201.748 321.476 201.9 321.484 202.054L323.759 239.829C323.767 239.978 323.831 240.118 323.939 240.221C324.047 240.324 324.191 240.381 324.34 240.381V240.399ZM317.355 252.817C317.495 252.753 317.605 252.638 317.661 252.494C317.717 252.351 317.715 252.192 317.655 252.05L303.264 219.564C303.202 219.422 303.086 219.312 302.942 219.255C302.798 219.199 302.638 219.203 302.496 219.265C302.355 219.327 302.244 219.442 302.187 219.586C302.131 219.729 302.135 219.89 302.197 220.031L316.578 252.518C316.623 252.622 316.698 252.711 316.792 252.774C316.887 252.837 316.998 252.871 317.112 252.873C317.209 252.878 317.305 252.858 317.393 252.817H317.355ZM319.846 248.332L354.292 243.417C354.375 243.415 354.457 243.396 354.532 243.361C354.607 243.325 354.674 243.274 354.728 243.211C354.782 243.148 354.822 243.074 354.845 242.994C354.869 242.915 354.875 242.831 354.864 242.749C354.853 242.666 354.824 242.588 354.78 242.517C354.736 242.447 354.677 242.386 354.608 242.34C354.539 242.294 354.461 242.263 354.379 242.249C354.297 242.235 354.213 242.238 354.133 242.259L319.687 247.173C319.533 247.183 319.389 247.254 319.287 247.369C319.185 247.485 319.134 247.636 319.143 247.79C319.153 247.944 319.224 248.087 319.34 248.189C319.456 248.29 319.607 248.342 319.761 248.332H319.846ZM310.024 270.261C310.146 270.165 310.226 270.025 310.245 269.871C310.264 269.717 310.222 269.561 310.127 269.438L291.457 245.501C291.362 245.377 291.221 245.296 291.065 245.276C290.91 245.256 290.753 245.298 290.629 245.393C290.505 245.489 290.424 245.629 290.403 245.785C290.383 245.94 290.426 246.096 290.521 246.22L309.228 270.195C309.282 270.265 309.352 270.322 309.432 270.36C309.511 270.399 309.598 270.419 309.687 270.419C309.827 270.413 309.959 270.356 310.061 270.261H310.024ZM339.199 263.786C339.204 263.631 339.148 263.481 339.043 263.367C338.937 263.253 338.792 263.186 338.637 263.178L312.973 261.88C312.829 261.89 312.694 261.952 312.592 262.055C312.491 262.158 312.432 262.295 312.425 262.439C312.418 262.583 312.464 262.724 312.555 262.837C312.646 262.949 312.775 263.024 312.917 263.048L338.628 264.346C338.782 264.351 338.933 264.295 339.047 264.191C339.161 264.086 339.229 263.94 339.236 263.786H339.199ZM327.093 282.79C327.102 282.713 327.095 282.635 327.074 282.561C327.052 282.487 327.016 282.417 326.967 282.357C326.918 282.297 326.857 282.247 326.789 282.211C326.721 282.175 326.645 282.152 326.568 282.145L306.906 280.211C306.83 280.204 306.753 280.211 306.679 280.233C306.606 280.255 306.538 280.292 306.479 280.34C306.419 280.389 306.37 280.449 306.335 280.517C306.299 280.584 306.277 280.658 306.27 280.735C306.256 280.888 306.304 281.04 306.402 281.159C306.5 281.278 306.641 281.353 306.794 281.37L326.456 283.313H326.512C326.663 283.324 326.812 283.275 326.928 283.177C327.043 283.079 327.116 282.941 327.13 282.79H327.093ZM302.421 292.918C302.551 292.833 302.642 292.699 302.674 292.547C302.705 292.394 302.675 292.236 302.59 292.105L292.871 277.446C292.782 277.319 292.648 277.232 292.496 277.203C292.344 277.173 292.187 277.203 292.057 277.287C291.927 277.373 291.836 277.506 291.804 277.659C291.773 277.811 291.803 277.969 291.888 278.1L301.607 292.759C301.662 292.84 301.737 292.905 301.823 292.951C301.909 292.996 302.005 293.02 302.103 293.021C302.23 293.028 302.355 292.992 302.459 292.918H302.421ZM324.724 297.824C324.721 297.67 324.66 297.523 324.552 297.413C324.444 297.304 324.297 297.24 324.143 297.235L301.026 297.02C300.872 297.02 300.725 297.081 300.616 297.19C300.507 297.298 300.446 297.446 300.446 297.599C300.443 297.676 300.456 297.753 300.485 297.825C300.513 297.897 300.555 297.963 300.61 298.018C300.664 298.073 300.729 298.116 300.8 298.146C300.872 298.175 300.949 298.189 301.026 298.188L324.143 298.403C324.222 298.407 324.301 298.394 324.375 298.367C324.45 298.34 324.518 298.298 324.575 298.244C324.633 298.19 324.679 298.125 324.711 298.053C324.743 297.98 324.76 297.902 324.761 297.824H324.724ZM293.705 332.319C293.751 332.216 297.693 321.378 309.547 318.79C309.699 318.757 309.832 318.664 309.917 318.532C310.001 318.401 310.029 318.242 309.996 318.089C309.958 317.94 309.864 317.811 309.733 317.729C309.602 317.647 309.445 317.619 309.294 317.65C296.794 320.378 292.647 331.824 292.6 331.936C292.551 332.084 292.563 332.244 292.631 332.384C292.699 332.523 292.819 332.631 292.965 332.684H293.152C293.277 332.694 293.401 332.665 293.508 332.599C293.614 332.533 293.696 332.435 293.742 332.319H293.705ZM296.336 340.887C296.49 340.875 296.634 340.803 296.736 340.685C296.838 340.568 296.889 340.416 296.879 340.261C295.409 318.229 303.948 282.145 317.645 252.527C326.4 233.597 360.715 196.392 361.08 196.018C361.19 195.908 361.252 195.758 361.252 195.603C361.252 195.447 361.19 195.297 361.08 195.187C361.026 195.133 360.962 195.089 360.891 195.06C360.82 195.031 360.744 195.016 360.668 195.016C360.591 195.016 360.515 195.031 360.445 195.06C360.374 195.089 360.31 195.133 360.256 195.187C359.909 195.561 325.454 232.906 316.625 252.004C302.674 282.342 294.248 317.772 295.746 340.336C295.757 340.485 295.824 340.624 295.933 340.726C296.043 340.828 296.186 340.885 296.336 340.887ZM324.34 240.399C324.495 240.39 324.639 240.32 324.743 240.204C324.846 240.089 324.9 239.937 324.892 239.783L322.655 201.989C322.651 201.912 322.632 201.836 322.599 201.767C322.566 201.697 322.519 201.635 322.462 201.584C322.404 201.532 322.337 201.493 322.264 201.468C322.191 201.443 322.114 201.432 322.037 201.438C321.882 201.447 321.737 201.517 321.634 201.633C321.53 201.748 321.476 201.9 321.484 202.054L323.759 239.829C323.767 239.978 323.831 240.118 323.939 240.221C324.047 240.324 324.191 240.381 324.34 240.381V240.399ZM317.355 252.817C317.495 252.753 317.605 252.638 317.661 252.494C317.717 252.351 317.715 252.192 317.655 252.05L303.264 219.564C303.202 219.422 303.086 219.312 302.942 219.255C302.798 219.199 302.638 219.203 302.496 219.265C302.355 219.327 302.244 219.442 302.187 219.586C302.131 219.729 302.135 219.89 302.197 220.031L316.578 252.518C316.623 252.622 316.698 252.711 316.792 252.774C316.887 252.837 316.998 252.871 317.112 252.873C317.209 252.878 317.305 252.858 317.393 252.817H317.355ZM319.846 248.332L354.292 243.417C354.375 243.415 354.457 243.396 354.532 243.361C354.607 243.325 354.674 243.274 354.728 243.211C354.782 243.148 354.822 243.074 354.845 242.994C354.869 242.915 354.875 242.831 354.864 242.749C354.853 242.666 354.824 242.588 354.78 242.517C354.736 242.447 354.677 242.386 354.608 242.34C354.539 242.294 354.461 242.263 354.379 242.249C354.297 242.235 354.213 242.238 354.133 242.259L319.687 247.173C319.533 247.183 319.389 247.254 319.287 247.369C319.185 247.485 319.134 247.636 319.143 247.79C319.153 247.944 319.224 248.087 319.34 248.189C319.456 248.29 319.607 248.342 319.761 248.332H319.846ZM310.024 270.261C310.146 270.165 310.226 270.025 310.245 269.871C310.264 269.717 310.222 269.561 310.127 269.438L291.457 245.501C291.41 245.439 291.351 245.388 291.284 245.349C291.217 245.311 291.142 245.286 291.065 245.276C290.988 245.266 290.91 245.271 290.835 245.291C290.761 245.311 290.69 245.346 290.629 245.393C290.567 245.441 290.516 245.499 290.477 245.567C290.438 245.634 290.413 245.708 290.403 245.785C290.393 245.861 290.399 245.939 290.419 246.014C290.439 246.089 290.474 246.159 290.521 246.22L309.228 270.195C309.282 270.265 309.352 270.322 309.432 270.36C309.511 270.399 309.598 270.419 309.687 270.419C309.827 270.413 309.959 270.356 310.061 270.261H310.024ZM339.199 263.786C339.204 263.631 339.148 263.481 339.043 263.367C338.937 263.253 338.792 263.186 338.637 263.178L312.973 261.88C312.829 261.89 312.694 261.952 312.592 262.055C312.491 262.158 312.432 262.295 312.425 262.439C312.418 262.583 312.464 262.724 312.555 262.837C312.646 262.949 312.775 263.024 312.917 263.048L338.628 264.346C338.782 264.351 338.933 264.295 339.047 264.191C339.161 264.086 339.229 263.94 339.236 263.786H339.199ZM327.093 282.79C327.102 282.713 327.095 282.635 327.074 282.561C327.052 282.487 327.016 282.417 326.967 282.357C326.918 282.297 326.857 282.247 326.789 282.211C326.721 282.175 326.645 282.152 326.568 282.145L306.906 280.211C306.83 280.204 306.753 280.211 306.679 280.233C306.606 280.255 306.538 280.292 306.479 280.34C306.419 280.389 306.37 280.449 306.335 280.517C306.299 280.584 306.277 280.658 306.27 280.735C306.256 280.888 306.304 281.04 306.402 281.159C306.5 281.278 306.641 281.353 306.794 281.37L326.456 283.313H326.512C326.663 283.324 326.812 283.275 326.928 283.177C327.043 283.079 327.116 282.941 327.13 282.79H327.093ZM302.421 292.918C302.551 292.833 302.642 292.699 302.674 292.547C302.705 292.394 302.675 292.236 302.59 292.105L292.871 277.446C292.782 277.319 292.648 277.232 292.496 277.203C292.344 277.173 292.187 277.203 292.057 277.287C291.927 277.373 291.836 277.506 291.804 277.659C291.773 277.811 291.803 277.969 291.888 278.1L301.607 292.759C301.662 292.84 301.737 292.905 301.823 292.951C301.909 292.996 302.005 293.02 302.103 293.021C302.23 293.028 302.355 292.992 302.459 292.918H302.421ZM324.724 297.824C324.721 297.67 324.66 297.523 324.552 297.413C324.444 297.304 324.297 297.24 324.143 297.235L301.026 297.02C300.872 297.02 300.725 297.081 300.616 297.19C300.507 297.298 300.446 297.446 300.446 297.599C300.443 297.676 300.456 297.753 300.485 297.825C300.513 297.897 300.555 297.963 300.61 298.018C300.664 298.073 300.729 298.116 300.8 298.146C300.872 298.175 300.949 298.189 301.026 298.188L324.143 298.403C324.222 298.407 324.301 298.394 324.375 298.367C324.45 298.34 324.518 298.298 324.575 298.244C324.633 298.19 324.679 298.125 324.711 298.053C324.743 297.98 324.76 297.902 324.761 297.824H324.724ZM293.705 332.319C293.751 332.216 297.693 321.378 309.547 318.79C309.699 318.757 309.832 318.664 309.917 318.532C310.001 318.401 310.029 318.242 309.996 318.089C309.958 317.94 309.864 317.811 309.733 317.729C309.602 317.647 309.445 317.619 309.294 317.65C296.794 320.378 292.647 331.824 292.6 331.936C292.551 332.084 292.563 332.244 292.631 332.384C292.699 332.523 292.819 332.631 292.965 332.684H293.152C293.277 332.694 293.401 332.665 293.508 332.599C293.614 332.533 293.696 332.435 293.742 332.319H293.705Z" fill="#AEC2FF"/>
<path opacity="0.2" d="M324.349 239.82L322.074 202.045L324.349 239.82ZM317.149 252.284L302.768 219.797L317.149 252.284ZM354.264 242.838L319.799 247.771L354.264 242.838ZM309.696 269.793L291.036 245.903L309.696 269.793ZM312.973 262.468L338.684 263.758L312.973 262.468ZM306.887 280.791L326.549 282.734L306.887 280.791ZM302.14 292.432L292.375 277.773L302.14 292.432ZM301.017 297.609L324.134 297.824L301.017 297.609ZM296.336 340.887C296.49 340.875 296.634 340.803 296.736 340.685C296.838 340.568 296.889 340.416 296.879 340.261C295.409 318.229 303.948 282.145 317.645 252.527C326.4 233.597 360.715 196.392 361.08 196.018C361.19 195.908 361.252 195.758 361.252 195.603C361.252 195.447 361.19 195.297 361.08 195.187C361.026 195.133 360.962 195.089 360.891 195.06C360.82 195.031 360.744 195.016 360.668 195.016C360.591 195.016 360.515 195.031 360.445 195.06C360.374 195.089 360.31 195.133 360.256 195.187C359.909 195.561 325.454 232.906 316.625 252.004C302.674 282.342 294.248 317.772 295.746 340.336C295.757 340.485 295.824 340.624 295.933 340.726C296.043 340.828 296.186 340.885 296.336 340.887ZM324.34 240.399C324.495 240.39 324.639 240.32 324.743 240.204C324.846 240.089 324.9 239.937 324.892 239.783L322.655 201.989C322.651 201.912 322.632 201.836 322.599 201.767C322.566 201.697 322.519 201.635 322.462 201.584C322.404 201.532 322.337 201.493 322.264 201.468C322.191 201.443 322.114 201.432 322.037 201.438C321.882 201.447 321.737 201.517 321.634 201.633C321.53 201.748 321.476 201.9 321.484 202.054L323.759 239.829C323.767 239.978 323.831 240.118 323.939 240.221C324.047 240.324 324.191 240.381 324.34 240.381V240.399ZM317.355 252.817C317.495 252.753 317.605 252.638 317.661 252.494C317.717 252.351 317.715 252.192 317.655 252.05L303.264 219.564C303.202 219.422 303.086 219.312 302.942 219.255C302.798 219.199 302.638 219.203 302.496 219.265C302.355 219.327 302.244 219.442 302.187 219.586C302.131 219.729 302.135 219.89 302.197 220.031L316.578 252.518C316.623 252.622 316.698 252.711 316.792 252.774C316.887 252.837 316.998 252.871 317.112 252.873C317.209 252.878 317.305 252.858 317.393 252.817H317.355ZM319.846 248.332L354.292 243.417C354.375 243.415 354.457 243.396 354.532 243.361C354.607 243.325 354.674 243.274 354.728 243.211C354.782 243.148 354.822 243.074 354.845 242.994C354.869 242.915 354.875 242.831 354.864 242.749C354.853 242.666 354.824 242.588 354.78 242.517C354.736 242.447 354.677 242.386 354.608 242.34C354.539 242.294 354.461 242.263 354.379 242.249C354.297 242.235 354.213 242.238 354.133 242.259L319.687 247.173C319.533 247.183 319.389 247.254 319.287 247.369C319.185 247.485 319.134 247.636 319.143 247.79C319.153 247.944 319.224 248.087 319.34 248.189C319.456 248.29 319.607 248.342 319.761 248.332H319.846ZM310.024 270.261C310.146 270.165 310.226 270.025 310.245 269.871C310.264 269.717 310.222 269.561 310.127 269.438L291.457 245.501C291.362 245.377 291.221 245.296 291.065 245.276C290.91 245.256 290.753 245.298 290.629 245.393C290.505 245.489 290.424 245.629 290.403 245.785C290.383 245.94 290.426 246.096 290.521 246.22L309.228 270.195C309.282 270.265 309.352 270.322 309.432 270.36C309.511 270.399 309.598 270.419 309.687 270.419C309.827 270.413 309.959 270.356 310.061 270.261H310.024ZM339.199 263.786C339.204 263.631 339.148 263.481 339.043 263.367C338.937 263.253 338.792 263.186 338.637 263.178L312.973 261.88C312.829 261.89 312.694 261.952 312.592 262.055C312.491 262.158 312.432 262.295 312.425 262.439C312.418 262.583 312.464 262.724 312.555 262.837C312.646 262.949 312.775 263.024 312.917 263.048L338.628 264.346C338.782 264.351 338.933 264.295 339.047 264.191C339.161 264.086 339.229 263.94 339.236 263.786H339.199ZM327.093 282.79C327.102 282.713 327.095 282.635 327.074 282.561C327.052 282.487 327.016 282.417 326.967 282.357C326.918 282.297 326.857 282.247 326.789 282.211C326.721 282.175 326.645 282.152 326.568 282.145L306.906 280.211C306.83 280.204 306.753 280.211 306.679 280.233C306.606 280.255 306.538 280.292 306.479 280.34C306.419 280.389 306.37 280.449 306.335 280.517C306.299 280.584 306.277 280.658 306.27 280.735C306.256 280.888 306.304 281.04 306.402 281.159C306.5 281.278 306.641 281.353 306.794 281.37L326.456 283.313H326.512C326.663 283.324 326.812 283.275 326.928 283.177C327.043 283.079 327.116 282.941 327.13 282.79H327.093ZM302.421 292.918C302.551 292.833 302.642 292.699 302.674 292.547C302.705 292.394 302.675 292.236 302.59 292.105L292.871 277.446C292.782 277.319 292.648 277.232 292.496 277.203C292.344 277.173 292.187 277.203 292.057 277.287C291.927 277.373 291.836 277.506 291.804 277.659C291.773 277.811 291.803 277.969 291.888 278.1L301.607 292.759C301.662 292.84 301.737 292.905 301.823 292.951C301.909 292.996 302.005 293.02 302.103 293.021C302.23 293.028 302.355 292.992 302.459 292.918H302.421ZM324.724 297.824C324.721 297.67 324.66 297.523 324.552 297.413C324.444 297.304 324.297 297.24 324.143 297.235L301.026 297.02C300.872 297.02 300.725 297.081 300.616 297.19C300.507 297.298 300.446 297.446 300.446 297.599C300.443 297.676 300.456 297.753 300.485 297.825C300.513 297.897 300.555 297.963 300.61 298.018C300.664 298.073 300.729 298.116 300.8 298.146C300.872 298.175 300.949 298.189 301.026 298.188L324.143 298.403C324.222 298.407 324.301 298.394 324.375 298.367C324.45 298.34 324.518 298.298 324.575 298.244C324.633 298.19 324.679 298.125 324.711 298.053C324.743 297.98 324.76 297.902 324.761 297.824H324.724ZM293.705 332.319C293.751 332.216 297.693 321.378 309.547 318.79C309.699 318.757 309.832 318.664 309.917 318.532C310.001 318.401 310.029 318.242 309.996 318.089C309.958 317.94 309.864 317.811 309.733 317.729C309.602 317.647 309.445 317.619 309.294 317.65C296.794 320.378 292.647 331.824 292.6 331.936C292.551 332.084 292.563 332.244 292.631 332.384C292.699 332.523 292.819 332.631 292.965 332.684H293.152C293.277 332.694 293.401 332.665 293.508 332.599C293.614 332.533 293.696 332.435 293.742 332.319H293.705ZM296.336 340.887C296.49 340.875 296.634 340.803 296.736 340.685C296.838 340.568 296.889 340.416 296.879 340.261C295.409 318.229 303.948 282.145 317.645 252.527C326.4 233.597 360.715 196.392 361.08 196.018C361.19 195.908 361.252 195.758 361.252 195.603C361.252 195.447 361.19 195.297 361.08 195.187C361.026 195.133 360.962 195.089 360.891 195.06C360.82 195.031 360.744 195.016 360.668 195.016C360.591 195.016 360.515 195.031 360.445 195.06C360.374 195.089 360.31 195.133 360.256 195.187C359.909 195.561 325.454 232.906 316.625 252.004C302.674 282.342 294.248 317.772 295.746 340.336C295.757 340.485 295.824 340.624 295.933 340.726C296.043 340.828 296.186 340.885 296.336 340.887ZM324.34 240.399C324.495 240.39 324.639 240.32 324.743 240.204C324.846 240.089 324.9 239.937 324.892 239.783L322.655 201.989C322.651 201.912 322.632 201.836 322.599 201.767C322.566 201.697 322.519 201.635 322.462 201.584C322.404 201.532 322.337 201.493 322.264 201.468C322.191 201.443 322.114 201.432 322.037 201.438C321.882 201.447 321.737 201.517 321.634 201.633C321.53 201.748 321.476 201.9 321.484 202.054L323.759 239.829C323.767 239.978 323.831 240.118 323.939 240.221C324.047 240.324 324.191 240.381 324.34 240.381V240.399ZM317.355 252.817C317.495 252.753 317.605 252.638 317.661 252.494C317.717 252.351 317.715 252.192 317.655 252.05L303.264 219.564C303.202 219.422 303.086 219.312 302.942 219.255C302.798 219.199 302.638 219.203 302.496 219.265C302.355 219.327 302.244 219.442 302.187 219.586C302.131 219.729 302.135 219.89 302.197 220.031L316.578 252.518C316.623 252.622 316.698 252.711 316.792 252.774C316.887 252.837 316.998 252.871 317.112 252.873C317.209 252.878 317.305 252.858 317.393 252.817H317.355ZM319.846 248.332L354.292 243.417C354.375 243.415 354.457 243.396 354.532 243.361C354.607 243.325 354.674 243.274 354.728 243.211C354.782 243.148 354.822 243.074 354.845 242.994C354.869 242.915 354.875 242.831 354.864 242.749C354.853 242.666 354.824 242.588 354.78 242.517C354.736 242.447 354.677 242.386 354.608 242.34C354.539 242.294 354.461 242.263 354.379 242.249C354.297 242.235 354.213 242.238 354.133 242.259L319.687 247.173C319.533 247.183 319.389 247.254 319.287 247.369C319.185 247.485 319.134 247.636 319.143 247.79C319.153 247.944 319.224 248.087 319.34 248.189C319.456 248.29 319.607 248.342 319.761 248.332H319.846ZM310.024 270.261C310.146 270.165 310.226 270.025 310.245 269.871C310.264 269.717 310.222 269.561 310.127 269.438L291.457 245.501C291.41 245.439 291.351 245.388 291.284 245.349C291.217 245.311 291.142 245.286 291.065 245.276C290.988 245.266 290.91 245.271 290.835 245.291C290.761 245.311 290.69 245.346 290.629 245.393C290.567 245.441 290.516 245.499 290.477 245.567C290.438 245.634 290.413 245.708 290.403 245.785C290.393 245.861 290.399 245.939 290.419 246.014C290.439 246.089 290.474 246.159 290.521 246.22L309.228 270.195C309.282 270.265 309.352 270.322 309.432 270.36C309.511 270.399 309.598 270.419 309.687 270.419C309.827 270.413 309.959 270.356 310.061 270.261H310.024ZM339.199 263.786C339.204 263.631 339.148 263.481 339.043 263.367C338.937 263.253 338.792 263.186 338.637 263.178L312.973 261.88C312.829 261.89 312.694 261.952 312.592 262.055C312.491 262.158 312.432 262.295 312.425 262.439C312.418 262.583 312.464 262.724 312.555 262.837C312.646 262.949 312.775 263.024 312.917 263.048L338.628 264.346C338.782 264.351 338.933 264.295 339.047 264.191C339.161 264.086 339.229 263.94 339.236 263.786H339.199ZM327.093 282.79C327.102 282.713 327.095 282.635 327.074 282.561C327.052 282.487 327.016 282.417 326.967 282.357C326.918 282.297 326.857 282.247 326.789 282.211C326.721 282.175 326.645 282.152 326.568 282.145L306.906 280.211C306.83 280.204 306.753 280.211 306.679 280.233C306.606 280.255 306.538 280.292 306.479 280.34C306.419 280.389 306.37 280.449 306.335 280.517C306.299 280.584 306.277 280.658 306.27 280.735C306.256 280.888 306.304 281.04 306.402 281.159C306.5 281.278 306.641 281.353 306.794 281.37L326.456 283.313H326.512C326.663 283.324 326.812 283.275 326.928 283.177C327.043 283.079 327.116 282.941 327.13 282.79H327.093ZM302.421 292.918C302.551 292.833 302.642 292.699 302.674 292.547C302.705 292.394 302.675 292.236 302.59 292.105L292.871 277.446C292.782 277.319 292.648 277.232 292.496 277.203C292.344 277.173 292.187 277.203 292.057 277.287C291.927 277.373 291.836 277.506 291.804 277.659C291.773 277.811 291.803 277.969 291.888 278.1L301.607 292.759C301.662 292.84 301.737 292.905 301.823 292.951C301.909 292.996 302.005 293.02 302.103 293.021C302.23 293.028 302.355 292.992 302.459 292.918H302.421ZM324.724 297.824C324.721 297.67 324.66 297.523 324.552 297.413C324.444 297.304 324.297 297.24 324.143 297.235L301.026 297.02C300.872 297.02 300.725 297.081 300.616 297.19C300.507 297.298 300.446 297.446 300.446 297.599C300.443 297.676 300.456 297.753 300.485 297.825C300.513 297.897 300.555 297.963 300.61 298.018C300.664 298.073 300.729 298.116 300.8 298.146C300.872 298.175 300.949 298.189 301.026 298.188L324.143 298.403C324.222 298.407 324.301 298.394 324.375 298.367C324.45 298.34 324.518 298.298 324.575 298.244C324.633 298.19 324.679 298.125 324.711 298.053C324.743 297.98 324.76 297.902 324.761 297.824H324.724ZM293.705 332.319C293.751 332.216 297.693 321.378 309.547 318.79C309.699 318.757 309.832 318.664 309.917 318.532C310.001 318.401 310.029 318.242 309.996 318.089C309.958 317.94 309.864 317.811 309.733 317.729C309.602 317.647 309.445 317.619 309.294 317.65C296.794 320.378 292.647 331.824 292.6 331.936C292.551 332.084 292.563 332.244 292.631 332.384C292.699 332.523 292.819 332.631 292.965 332.684H293.152C293.277 332.694 293.401 332.665 293.508 332.599C293.614 332.533 293.696 332.435 293.742 332.319H293.705Z" fill="#212941"/>
<path d="M311.623 324.413H285.117V329.888H287.43L292.214 359.759H304.526L309.311 329.888H311.623V324.413Z" fill="#AEC2FF"/>
<path opacity="0.3" d="M311.623 324.413H285.117V329.888H287.43L292.214 359.759H304.526L309.311 329.888H311.623V324.413Z" fill="white"/>
<path d="M72.9849 158.849L42.1529 148.804L39.4096 141.573L33.1458 141.377L21.7793 139.228L23.1463 141.573L37.4528 151.934L40.9826 153.691L73.2283 170.5L72.9849 158.849Z" fill="white" stroke="#212941" stroke-width="1.00396" stroke-miterlimit="10"/>
<path d="M39.4081 141.573L36.4682 139.816L30.5977 141.965L31.5714 143.133L39.4081 141.573Z" fill="white" stroke="#212941" stroke-width="1.00396" stroke-linejoin="round"/>
<path d="M72.9849 158.849L42.1529 148.804L39.4096 141.573L33.1458 141.377L21.7793 139.228L23.1463 141.573L37.4528 151.934L40.9826 153.691L73.2283 170.5L72.9849 158.849Z" fill="white"/>
<path opacity="0.5" d="M72.9849 158.849L42.1529 148.804L39.4096 141.573L33.1458 141.377L21.7793 139.228L23.1463 141.573L37.4528 151.934L40.9826 153.691L73.2283 170.5L72.9849 158.849Z" fill="#AEC2FF" stroke="#212941" stroke-width="1.00396" stroke-miterlimit="10"/>
<path d="M72.9849 158.849L42.1529 148.804L39.4096 141.573L33.1458 141.377L21.7793 139.228L23.1463 141.573L37.4528 151.934L40.9826 153.691L73.2283 170.5L72.9849 158.849Z" stroke="#212941" stroke-width="1.00396" stroke-miterlimit="10"/>
<path d="M39.4081 141.573L36.4682 139.816L30.5977 141.965L31.5714 143.133L39.4081 141.573Z" fill="white"/>
<path opacity="0.5" d="M39.4081 141.573L36.4682 139.816L30.5977 141.965L31.5714 143.133L39.4081 141.573Z" fill="#AEC2FF" stroke="#212941" stroke-width="1.00396" stroke-linejoin="round"/>
<path d="M39.4081 141.573L36.4682 139.816L30.5977 141.965L31.5714 143.133L39.4081 141.573Z" stroke="#212941" stroke-width="1.00396" stroke-linejoin="round"/>
<path d="M79.5249 93.6613C79.5249 93.6613 79.0474 97.8658 80.2365 100.566C81.4256 103.266 88.0264 112.413 88.0264 112.413L75.7049 122.271C75.7049 122.271 70.5928 111.993 69.619 110.33C68.6453 108.667 67.4749 101.51 70.6489 96.3802C73.823 91.2507 78.392 89.8679 79.5249 93.6613Z" fill="white"/>
<g style="mix-blend-mode:multiply" opacity="0.5">
<path d="M73.1967 107.172L78.5429 118.234L75.6966 122.28L70.3223 112.703L73.1967 107.172Z" fill="#AEC2FF"/>
</g>
<path d="M79.5249 93.6613C79.5249 93.6613 79.0474 97.8658 80.2365 100.566C81.4256 103.266 88.0264 112.413 88.0264 112.413L75.7049 122.271C75.7049 122.271 70.5928 111.993 69.619 110.33C68.6453 108.667 67.4749 101.51 70.6489 96.3802C73.823 91.2507 78.392 89.8679 79.5249 93.6613Z" stroke="#212941" stroke-width="1.00396" stroke-miterlimit="10"/>
<path d="M83.3465 85.9623C82.5881 81.2906 77.2232 71.7884 68.7123 72.1528C63.1882 72.3957 60.6041 73.5076 58.2072 74.8623C56.2534 76.0111 54.4323 77.3709 52.7767 78.9174C48.6196 83.8974 47.159 85.2615 47.9642 89.0736C47.8982 90.5941 48.1369 92.1125 48.6664 93.5397C49.9398 96.9313 50.8105 99.1457 51.9153 100.762C51.5783 102.341 50.6982 106.508 50.6514 107.461C50.6045 108.414 53.4602 107.751 54.9021 107.387C57.5799 113.366 62.486 117.515 64.0122 117.991C66.6712 118.823 70.8752 114.459 73.1035 111.077C75.3319 107.695 73.6466 103.892 73.6559 102.379C73.6653 100.865 78.6651 97.5387 80.5189 96.4829C82.3728 95.4271 84.0955 90.6246 83.3465 85.9623Z" fill="white"/>
<g style="mix-blend-mode:multiply" opacity="0.5">
<path d="M48.0017 89.0724C47.9356 90.5929 48.1744 92.1113 48.7039 93.5385C49.9773 96.9302 50.848 99.1446 51.9528 100.761C51.6158 102.34 50.7357 106.507 50.6888 107.46C50.642 108.413 53.4977 107.75 54.9396 107.385C57.6174 113.365 62.5235 117.514 64.0497 117.99C66.7087 118.822 70.9126 114.458 73.141 111.076C73.6977 110.232 74.0591 109.274 74.199 108.273C74.0773 107.834 73.993 107.563 73.993 107.563C73.993 107.563 72.7384 112.375 70.2479 111.749C67.7574 111.123 63.9467 106.143 61.8213 104.424C59.6959 102.704 60.5667 100.443 60.1453 97.8832C59.724 95.3231 53.4322 93.0714 53.0108 91.6045C52.5895 90.1376 54.0595 84.0644 54.0595 84.0644C54.0595 84.0644 56.447 80.8876 55.932 82.1957C55.5681 83.3299 55.4361 84.5255 55.5438 85.7116C55.6516 86.8976 55.9969 88.05 56.5594 89.1004C56.954 89.9292 57.5801 90.6267 58.3624 91.109C59.1447 91.5914 60.0499 91.838 60.9693 91.8194L63.2538 80.5232L58.4319 76.543L52.8142 78.8788C48.6196 83.8962 47.1871 85.2603 48.0017 89.0724Z" fill="#AEC2FF"/>
</g>
<path d="M83.3465 85.9623C82.5881 81.2906 77.2232 71.7884 68.7123 72.1528C63.1882 72.3957 60.6041 73.5076 58.2072 74.8623C56.2534 76.0111 54.4323 77.3709 52.7767 78.9174C48.6196 83.8974 47.159 85.2615 47.9642 89.0736C47.8982 90.5941 48.1369 92.1125 48.6664 93.5397C49.9398 96.9313 50.8105 99.1457 51.9153 100.762C51.5783 102.341 50.6982 106.508 50.6514 107.461C50.6045 108.414 53.4602 107.751 54.9021 107.387C57.5799 113.366 62.486 117.515 64.0122 117.991C66.6712 118.823 70.8752 114.459 73.1035 111.077C75.3319 107.695 73.6466 103.892 73.6559 102.379C73.6653 100.865 78.6651 97.5387 80.5189 96.4829C82.3728 95.4271 84.0955 90.6246 83.3465 85.9623Z" stroke="#212941" stroke-miterlimit="10"/>
<path d="M53.0781 97.9404L54.0144 100.613C54.0144 100.613 56.0274 101.276 58.4805 98.6038" stroke="#212941" stroke-miterlimit="10" stroke-linecap="round"/>
<path d="M59.998 110.423C59.998 110.423 62.2264 110.199 63.1253 107.078" stroke="#212941" stroke-miterlimit="10" stroke-linecap="round"/>
<path d="M51.5156 95.708C51.5156 95.708 52.1804 93.6992 56.1971 93.6992" stroke="#212941" stroke-miterlimit="10" stroke-linecap="round"/>
<path d="M72.1025 68.4337C69.1838 68.0148 66.2405 67.7901 63.292 67.7609C63.292 67.7609 54.4722 62.6875 45.9988 68.0973C37.5254 73.5071 41.5982 82.9813 41.5982 85.3452C41.5982 87.709 38.883 87.7184 40.5777 90.7643C42.2723 93.8102 48.0024 92.1284 48.0024 92.1284C48.063 90.9796 48.3672 89.8567 48.895 88.8339C49.4228 87.8111 50.1621 86.9118 51.0641 86.1954C54.1164 83.8315 56.5507 83.3176 57.5619 83.9997C57.5619 83.9997 56.8878 89.0732 57.899 91.1007C57.899 91.1007 61.2883 92.7918 62.3089 92.7918C63.3295 92.7918 61.6441 94.2213 65.0241 95.492C65.6399 95.7127 66.2986 95.7879 66.9484 95.7117C67.5983 95.6355 68.2215 95.41 68.7693 95.0529C69.2655 92.9974 70.3516 89.9047 72.374 90.6241C75.342 91.6799 78.0479 98.9678 74.0312 101.453C78.8625 102.331 84.7143 93.8009 85.0607 86.0272C85.4071 78.2535 77.121 69.3119 72.1025 68.4337Z" fill="#212941"/>
<path d="M57.7109 80.6624C57.7109 80.6624 60.2015 79.3263 63.2538 82.1854C66.3061 85.0445 72.2421 88.8659 80.1069 86.7636" stroke="white" stroke-width="0.5" stroke-linecap="round" stroke-linejoin="round"/>
<path d="M57.3652 78.3743C57.3652 78.3743 59.0786 75.7021 61.9437 75.7021C64.8087 75.7021 71.5032 79.7105 76.8494 79.7105" stroke="white" stroke-width="0.5" stroke-linecap="round" stroke-linejoin="round"/>
<path d="M55.4165 83.5228C55.4165 83.5228 52.1676 79.5238 49.1153 82.7659C46.063 86.0081 48.0011 89.0727 48.0011 89.0727" stroke="white" stroke-width="0.5" stroke-linecap="round" stroke-linejoin="round"/>
<path d="M42.4336 86.1967C44.2954 84.5212 45.4528 82.2046 45.6731 79.7124C46.057 75.5172 51.7965 71.892 55.4199 75.3304" stroke="white" stroke-width="0.5" stroke-linecap="round" stroke-linejoin="round"/>
<path d="M48.3496 70.9384C48.3496 70.9384 54.089 65.4071 58.8641 72.4613" stroke="white" stroke-width="0.5" stroke-linecap="round" stroke-linejoin="round"/>
<path d="M95.0615 342.896C95.0615 342.896 98.5913 348.371 98.1981 351.893L97.8142 355.416C97.8142 355.416 84.8653 358.957 82.122 358.957C79.3787 358.957 64.8569 357.583 64.8569 357.583L64.2296 355.098C64.1856 354.914 64.2063 354.721 64.2882 354.551C64.37 354.381 64.508 354.244 64.679 354.164L77.6278 348.137L81.71 343.68L95.0615 342.896Z" fill="white" stroke="#212941" stroke-width="1.00396" stroke-miterlimit="10"/>
<path d="M84.087 356.199C87.5981 356.47 94.2645 354.33 98.1313 352.966L97.8598 355.414C97.8598 355.414 84.8641 358.955 82.1208 358.955C79.3775 358.955 64.8557 357.581 64.8557 357.581L64.4062 355.806C66.7282 355.816 79.443 355.844 84.087 356.199Z" fill="#AEC2FF" stroke="#212941" stroke-width="1.00396" stroke-miterlimit="10"/>
<path d="M77.6452 348.134L58.7978 356.319C58.7978 356.319 57.1874 360.346 58.7978 361.15C60.4082 361.953 95.519 361.15 95.519 361.15C95.519 361.15 97.944 354.787 94.1145 350.517C90.2851 346.247 77.6452 348.134 77.6452 348.134Z" fill="white" stroke="#212941" stroke-width="1.00396" stroke-miterlimit="10"/>
<path d="M95.5185 361.152C95.5185 361.152 60.4077 361.956 58.7973 361.152C58.0202 360.76 57.9921 359.629 58.17 358.555H96.1364C96.0124 359.438 95.8055 360.308 95.5185 361.152Z" fill="#AEC2FF" stroke="#212941" stroke-width="1.00396" stroke-miterlimit="10"/>
<path d="M68.732 205.92C68.732 205.92 63.8071 227.699 61.9439 241.322C60.0807 254.944 58.9852 282.236 59.3785 285.366C59.7717 288.496 79.3776 340.941 79.3776 340.941L81.3344 345.612L95.0604 342.875C95.0604 342.875 88.7873 322.917 86.4372 311.958C84.0871 300.998 78.9469 282.993 78.9469 279.863C78.9469 276.733 91.1186 216.954 91.9894 213.03C92.8601 209.106 96.8113 203.079 96.8113 203.079L70.5297 202.547L68.732 205.92Z" fill="#AEC2FF" stroke="#212941" stroke-width="1.00396" stroke-miterlimit="10"/>
<path d="M68.7302 205.922C68.7302 205.922 65.8465 225.814 67.0355 239.643C68.2246 253.471 70.7807 282.912 70.7807 287.294C70.7807 291.676 77.8684 317.846 78.271 326.069C78.8983 337.944 78.0182 343.821 78.0182 343.821L77.5969 348.128C77.5969 348.128 85.8643 349.306 87.6713 349.819C89.7584 350.356 91.9123 350.589 94.0662 350.511C94.0662 350.511 97.0716 337.309 97.0716 326.059C97.0716 314.81 94.5718 291.657 93.3265 282.276C92.0812 272.896 96.0043 236.709 98.2326 229.953C100.461 223.198 105.33 208.894 102.053 201.587C98.7757 194.281 68.7302 205.922 68.7302 205.922Z" fill="#AEC2FF" stroke="#212941" stroke-width="1.00396" stroke-miterlimit="10"/>
<path d="M105.695 197.922L105.396 206.817C105.396 206.817 100.059 207.873 92.868 209.115C86.9319 210.143 72.0262 208.844 67.0077 208.358C66.5504 208.318 66.1276 208.099 65.8312 207.749C65.5349 207.399 65.389 206.946 65.4254 206.49L65.9123 198.454L105.695 197.922Z" fill="#212941"/>
<path d="M84.8368 109.256C84.8368 109.256 76.4103 118.347 73.2362 124C70.0622 129.652 68.8076 138.314 67.6185 145.134C66.4294 151.955 69.6503 167.97 68.7421 175.323L65.8677 198.485C65.8677 198.485 65.2497 200.055 67.3189 201.774C69.3881 203.493 79.4906 204.119 88.6194 204.577C91.9526 204.745 101.905 202.605 103.535 202.503C105.501 202.381 105.566 199.886 105.651 197.924C106.044 188.702 107.71 164.12 108.806 153.413C111.062 131.577 98.7126 110.499 84.8368 109.256Z" fill="white" stroke="#212941" stroke-width="1.00396" stroke-miterlimit="10"/>
<g style="mix-blend-mode:multiply">
<path d="M107.774 165.828C108.149 160.979 108.523 156.578 108.851 153.411C108.945 152.476 109.001 151.542 109.048 150.608L86.661 154.345L67.4297 147.805C67.4318 151.776 67.6568 155.744 68.1038 159.689L86.97 164.959L107.774 165.828Z" fill="#AEC2FF"/>
</g>
<g style="mix-blend-mode:multiply">
<path d="M84.0045 110.17C82.7311 111.581 80.2031 114.449 77.7969 117.495L92.0097 131.912L96.6912 130.043L84.0045 110.17Z" fill="#AEC2FF"/>
</g>
<path d="M84.8387 109.256C84.8387 109.256 76.4121 118.347 73.2381 124C72.2969 125.718 71.5345 127.527 70.9629 129.4L87.9097 109.863C86.9085 109.561 85.8799 109.357 84.8387 109.256Z" fill="#212941"/>
<g style="mix-blend-mode:multiply">
<path d="M68.2734 141.453L86.6621 147.489L108.993 144.929C108.643 139.378 107.407 133.918 105.332 128.755L87.3269 135.959L71.2321 128.681C69.916 132.855 68.9269 137.126 68.2734 141.453Z" fill="#AEC2FF"/>
</g>
<g style="mix-blend-mode:multiply">
<path d="M99.9302 188.701C90.6035 190.264 81.0337 189.484 72.085 186.431L67.6001 184.898L66.2051 196.11L71.3172 197.54C81.0356 200.252 91.1929 201.032 101.213 199.838L105.342 199.343C105.557 198.889 105.678 198.397 105.698 197.895C105.81 195.4 106.007 191.775 106.259 187.617L99.9302 188.701Z" fill="#AEC2FF"/>
</g>
<g style="mix-blend-mode:multiply">
<path d="M102.431 173.435C93.1036 175.004 83.5314 174.22 74.5854 171.155L68.874 169.202C69.0157 171.238 68.9875 173.282 68.7898 175.313L68.125 180.704L73.8176 182.292C83.5323 185.007 93.6865 185.791 103.704 184.6L106.513 184.264C106.747 180.526 107.018 176.546 107.309 172.612L102.431 173.435Z" fill="#AEC2FF"/>
</g>
<path d="M14.5861 133.922L32.6895 148.447L33.4697 147.479L15.3664 132.953L14.5861 133.922Z" fill="#212941"/>
<path d="M93.5536 119.337C93.5536 119.337 100.192 123.85 100.342 134.511C100.407 139.182 99.9203 143.546 98.8436 151.198C97.7669 158.85 91.0818 183.769 85.876 186.796C80.6702 189.823 72.5901 184.105 72.5901 184.105L33.5094 158.215L24.0623 150.6L19.3809 141.78L20.8508 138.977L32.3765 147.797L26.1689 142.069L27.3861 140.528L29.6332 142.088L36.1872 144.536L37.6197 153.879L39.6421 155.262L77.0281 168.894C77.0281 168.894 76.5599 148.815 76.9064 144.975C77.2528 141.135 77.7303 131.483 81.85 124.485" fill="white"/>
<g style="mix-blend-mode:multiply" opacity="0.5">
<path d="M76.7652 153.721C76.7652 160.654 76.9993 168.895 76.9993 168.895L39.6508 155.319L37.6284 153.936L36.1959 144.593L29.6419 142.145L27.4042 140.557L26.187 142.098L32.3758 147.798L20.8501 138.978L19.4551 141.734L24.1365 150.554L33.5837 158.216L35.9618 159.795L87.5981 176.398L76.7652 153.721Z" fill="#AEC2FF"/>
</g>
<path d="M93.5536 119.337C93.5536 119.337 100.192 123.85 100.342 134.511C100.407 139.182 99.9203 143.546 98.8436 151.198C97.7669 158.85 91.0818 183.769 85.876 186.796C80.6702 189.823 72.5901 184.105 72.5901 184.105L33.5094 158.215L24.0623 150.6L19.3809 141.78L20.8508 138.977L32.3765 147.797L26.1689 142.069L27.3861 140.528L29.6332 142.088L36.1872 144.536L37.6197 153.879L39.6421 155.262L77.0281 168.894C77.0281 168.894 76.5599 148.815 76.9064 144.975C77.2528 141.135 77.7303 131.483 81.85 124.485" stroke="#212941" stroke-width="1.00396" stroke-miterlimit="10"/>
<path d="M77.0262 168.895L91.2952 179.173L94.9935 172.632C94.9935 172.632 97.5496 170.624 97.9241 169.11C98.2986 167.596 97.8211 165.139 98.205 163.625C98.5889 162.112 100.499 160.692 100.677 157.029C100.855 153.366 100.677 150.311 100.677 150.311C100.677 150.311 103.767 137.632 103.429 132.12C103.092 126.607 97.7649 116.862 93.4955 116.647C89.226 116.432 83.6738 117.077 79.3669 123.58C75.06 130.083 75.9401 149.068 75.266 150.255C74.5918 151.442 75.5281 157.3 75.5281 157.3C75.1539 157.578 74.8435 157.933 74.6175 158.341C74.3914 158.749 74.255 159.199 74.2173 159.664C74.1424 161.187 75.7903 164.933 75.7903 164.933L77.0262 168.895Z" fill="white" stroke="#212941" stroke-width="1.00396" stroke-miterlimit="10"/>
<g style="mix-blend-mode:multiply">
<path d="M75.6424 145.377C75.6718 147.007 75.5495 148.637 75.2772 150.245C74.678 151.31 75.3615 156.122 75.5113 157.103C83.537 159.59 92.0234 160.229 100.332 158.972C100.511 158.322 100.618 157.654 100.651 156.981C100.838 153.328 100.651 150.264 100.651 150.264C100.651 150.264 100.922 149.133 101.297 147.414C92.6916 147.96 84.0526 147.274 75.6424 145.377Z" fill="#AEC2FF"/>
</g>
<g style="mix-blend-mode:multiply">
<path d="M78.7862 124.614C77.4473 127.296 76.6983 131.323 76.2676 135.406C84.7673 138.643 93.9315 139.756 102.961 138.648C103.321 136.487 103.481 134.298 103.439 132.108C103.277 130.376 102.867 128.677 102.221 127.062C94.3371 127.246 86.4615 126.423 78.7862 124.614Z" fill="#AEC2FF"/>
</g>
<path d="M75.791 165.036L76.9988 168.895L91.2679 179.173L94.9662 172.632C94.9662 172.632 97.5222 170.623 97.8968 169.11C97.9636 168.847 98.0044 168.577 98.0185 168.306C90.4991 168.177 83.028 167.078 75.791 165.036Z" fill="#212941"/>
<path d="M86.1194 349.696C86.1194 349.696 86.4378 341.604 87.992 329.776C89.5462 317.947 85.8105 301.148 85.1831 298.345C84.5558 295.542 85.5015 289.319 84.8742 287.133C84.2469 284.946 81.2133 275.622 83.0016 264.802C84.7899 253.982 86.2411 225.382 86.2411 225.382C86.2411 225.382 81.7376 221.729 80.4174 216.973C79.0973 212.218 80.1085 210.723 80.1085 210.723" stroke="#212941" stroke-width="1.00396" stroke-miterlimit="10"/>
<path d="M88.2048 211.161L86.4727 220.729" stroke="#212941" stroke-width="1.00396" stroke-miterlimit="10"/>
</svg>
