<svg width="604" height="936" viewBox="0 0 604 936" fill="none" xmlns="http://www.w3.org/2000/svg">
<path fill-rule="evenodd" clip-rule="evenodd" d="M90.2362 890.291C133.408 937.35 300.355 910.319 410.282 910.319C457.705 910.319 616.85 934.12 551.132 770.661C335.655 234.708 -46.5538 741.184 90.2362 890.291Z" fill="#859BAC" fill-opacity="0.4"/>
<path fill-rule="evenodd" clip-rule="evenodd" d="M281.252 894.076C281.462 893.915 281.682 893.74 281.773 893.492C282.066 892.695 280.917 892.165 280.069 892.184C278.838 892.212 277.26 893.042 277.637 894.216C277.855 894.895 278.69 895.209 279.391 895.084C280.092 894.959 280.687 894.511 281.252 894.076H281.252ZM284.912 880.103C285.842 880.395 286.759 880.755 287.568 881.298C289.088 882.317 290.122 883.899 291.114 885.437C291.825 886.54 292.546 887.664 292.901 888.928C293.286 890.297 293.217 891.758 292.96 893.156C292.158 897.512 289.473 901.487 285.735 903.854C281.996 906.221 277.26 906.945 272.986 905.803C272.154 905.581 271.316 905.278 270.676 904.701C270.139 904.216 269.777 903.571 269.445 902.927C267.704 899.547 266.531 895.793 266.665 891.992C266.799 888.192 268.359 884.346 271.314 881.958C275.022 878.96 280.365 878.674 284.912 880.103" fill="white"/>
<path fill-rule="evenodd" clip-rule="evenodd" d="M481.17 673.36C479.133 673.334 477.222 675.045 477.02 677.075C476.937 677.905 477.289 678.937 478.114 679.051C478.732 679.137 479.274 678.659 479.69 678.192C480.569 677.206 481.323 676.109 481.931 674.935C482.135 674.542 482.314 674.036 482.046 673.683C481.851 673.426 481.493 673.364 481.17 673.36ZM480.289 664.255C483.182 665.266 485.805 667.044 487.816 669.359C489.545 671.348 490.862 673.931 490.499 676.543C490.365 677.502 490.012 678.417 489.609 679.297C488.083 682.63 485.458 685.825 481.853 686.471C479.962 686.809 478.013 686.403 476.194 685.784C474.091 685.067 472.086 684.062 470.252 682.806C469.279 682.139 468.314 681.348 467.887 680.248C467.593 679.489 467.584 678.654 467.596 677.841C467.623 675.83 467.756 673.784 468.456 671.899C469.342 669.513 471.076 667.544 472.914 665.787C473.654 665.08 474.438 664.384 475.387 664.005C476.941 663.385 478.71 663.703 480.289 664.255" fill="white"/>
<path fill-rule="evenodd" clip-rule="evenodd" d="M481.174 519.14C493.146 531.503 502.595 546.287 508.781 562.332C509.206 563.434 509.618 564.658 509.213 565.767C506.092 574.308 500.07 581.428 494.165 588.352C490.391 592.776 486.618 597.2 482.845 601.624C479.243 605.848 475.64 610.072 471.916 614.189C452.956 635.152 430.553 653.482 404.607 664.761C403.627 665.187 402.577 665.611 401.523 665.441C400.468 665.271 399.48 664.25 399.756 663.22C402.964 651.258 406.192 638.751 403.618 626.636C402.997 623.714 402.305 620.035 404.725 618.277C424.322 604.041 438.43 583.693 451.952 563.622C455.352 558.575 458.743 553.514 461.751 548.226C467.093 538.836 471.207 528.753 473.956 518.311C474.333 516.878 476.147 516.233 477.583 516.608C479.02 516.984 480.142 518.074 481.174 519.14" fill="white"/>
<path fill-rule="evenodd" clip-rule="evenodd" d="M107.815 567.17C109.761 584.791 115.179 602.021 123.665 617.579C128.919 627.213 135.31 636.17 141.684 645.1C146.119 651.315 150.862 657.791 157.783 661.002C159.623 661.856 159.366 664.513 158.872 666.482C156.737 674.997 155.741 683.796 155.919 692.573C155.936 693.402 155.957 694.262 155.632 695.024C154.528 697.614 150.744 697.182 148.139 696.123C132.021 689.571 119.646 676.395 108.087 663.378C93.0779 646.477 78.2926 628.834 69.4264 608.033C68.8237 606.619 68.2387 605.131 68.3395 603.596C68.4423 602.033 69.2443 600.612 70.0579 599.274C78.0954 586.054 89.2771 574.766 102.413 566.61C103.338 566.036 104.326 565.46 105.414 565.422C106.502 565.385 107.695 566.087 107.815 567.17" fill="white"/>
<path fill-rule="evenodd" clip-rule="evenodd" d="M478.826 876.289C480.215 873.932 481.937 871.336 484.633 870.889C485.696 870.713 486.256 869.556 486.618 868.54C491.075 856.021 491.505 842.099 487.828 829.328C486.779 825.683 488.071 821.819 489.349 818.247C492.648 809.031 495.947 799.815 499.246 790.599C497.356 787.325 492.372 787.422 489.819 784.635C486.534 781.049 489.012 775.348 491.586 771.22C506.623 747.104 521.661 722.989 536.698 698.873C538.541 695.918 542.584 694.992 545.972 695.779C549.36 696.567 552.254 698.702 555.041 700.787C566.008 708.99 576.976 717.193 587.943 725.396C593.829 729.798 600.327 735.422 599.988 742.771C599.801 746.838 597.477 750.453 595.229 753.845C586.537 766.961 577.845 780.076 569.153 793.192C564.257 800.581 565.609 810.285 564.129 819.029C561.791 832.843 552.33 844.189 543.57 855.115C534.81 866.041 526.045 878.241 525.552 892.245C524.966 908.935 517.048 925.235 504.298 936C507.996 927.016 484.633 930.6 457.907 919.952C462.305 904.372 470.608 890.232 478.826 876.289Z" fill="white"/>
<path fill-rule="evenodd" clip-rule="evenodd" d="M185.361 915.361C183.694 913.996 183.163 911.692 182.869 909.549C179.465 884.768 194.082 860.308 191.478 835.429C190.137 822.608 184.254 810.645 176.851 800.124C171.739 792.858 171.452 783.124 173.359 774.431C175.267 765.737 179.114 757.608 181.709 749.097C193.249 711.248 179.207 670.813 165.324 633.769C192.988 620.373 225.27 622.968 255.916 624.783C286.563 626.597 319.523 626.726 345.066 609.587C348.567 646.664 340.847 683.782 333.171 720.216C372.119 716.416 411.068 712.616 450.016 708.817C451.133 708.708 452.354 708.624 453.283 709.259C454.521 710.106 454.711 711.834 454.782 713.339C456.602 751.898 457.706 790.491 458.092 829.091C458.102 830.059 458.069 831.139 457.391 831.825C456.81 832.413 455.924 832.536 455.105 832.627C400.537 838.717 345.969 844.806 291.402 850.896C286.683 851.422 279.961 850.192 280.237 845.422C281.47 824.153 280.75 802.77 278.092 781.634C263.59 781.084 248.989 783.299 235.293 788.125C232.185 789.22 228.449 792.164 230.125 795.016C241.212 813.885 227.451 842.245 242.51 858.084C247.687 863.53 247.33 872.097 246.303 879.563C244.104 895.567 240.367 911.356 235.162 926.64C237.678 909.048 186.898 924.794 185.361 915.361Z" fill="white"/>
<path fill-rule="evenodd" clip-rule="evenodd" d="M29.2834 516.026C29.33 516.401 29.127 516.796 28.7945 516.976C28.5297 516.71 28.2648 516.445 28 516.18C28.397 516.006 28.8473 515.956 29.2725 516.039L29.2834 516.026Z" fill="#122E82"/>
<path fill-rule="evenodd" clip-rule="evenodd" d="M283.958 880.103C284.888 880.395 285.805 880.755 286.614 881.298C288.134 882.317 289.168 883.899 290.16 885.437C290.871 886.54 291.592 887.664 291.947 888.928C292.332 890.297 292.263 891.758 292.006 893.156C291.203 897.512 288.519 901.487 284.781 903.854C281.042 906.221 276.305 906.945 272.032 905.803C271.2 905.581 270.362 905.278 269.722 904.701C269.185 904.216 268.822 903.571 268.491 902.927C266.75 899.547 265.577 895.793 265.711 891.992C265.845 888.192 267.405 884.346 270.36 881.958C274.068 878.96 279.411 878.674 283.958 880.103M278.748 902.729C281.073 902.375 283.118 900.855 284.454 898.918C285.79 896.98 286.476 894.657 286.805 892.326C286.993 890.994 287.01 889.469 286.071 888.507C285.51 887.932 284.707 887.675 283.937 887.444C281.047 886.578 277.748 885.842 275.16 887.393C273.275 888.523 272.224 890.616 271.271 892.598C270.155 894.919 270.431 897.849 271.96 899.92C273.489 901.992 276.205 903.116 278.748 902.729V902.729Z" fill="#122E82"/>
<path fill-rule="evenodd" clip-rule="evenodd" d="M390.14 775.55C390.18 775.057 390.24 774.527 390.566 774.154C390.885 773.79 391.388 773.659 391.859 773.549C404.002 770.718 416.546 769.61 428.997 770.27C430.582 770.354 432.622 770.891 432.727 772.478C433.328 781.575 433.93 790.672 434.531 799.769C434.561 800.229 434.577 800.739 434.283 801.095C434.043 801.384 433.656 801.496 433.293 801.591C420.343 804.971 406.692 805.638 393.475 803.535C393.134 803.481 392.776 803.417 392.512 803.195C392.193 802.927 392.081 802.491 391.99 802.084C390.041 793.401 389.415 784.421 390.14 775.55ZM393.001 790.641C393.24 794.076 393.96 797.477 395.133 800.714C396.302 800.883 397.46 801.126 398.626 801.324C408.67 803.027 418.943 801.314 428.986 799.602C429.699 799.481 430.48 799.319 430.92 798.745C431.369 798.158 431.31 797.341 431.228 796.606C430.882 793.471 430.537 790.337 430.191 787.202C430.163 786.949 430.127 786.679 429.956 786.49C429.749 786.262 429.41 786.225 429.102 786.205C421.965 785.734 414.805 786.268 407.672 786.801C403.73 787.095 399.788 787.39 395.845 787.684C394.918 787.754 393.866 787.891 393.333 788.653C392.941 789.215 392.954 789.957 393.001 790.641ZM393.114 777.53C392.49 779.534 392.378 781.695 392.791 783.752C392.866 784.122 392.97 784.512 393.25 784.764C393.666 785.137 394.299 785.075 394.851 784.994C401.568 784.009 408.357 783.52 415.146 783.531C416.103 783.533 416.397 782.242 416.387 781.283C416.371 779.878 416.356 778.473 416.341 777.068C416.332 776.255 416.291 775.359 415.735 774.766C415.068 774.054 413.951 774.076 412.978 774.151C410.73 774.323 408.481 774.495 406.232 774.667C405.156 774.749 402.303 775.481 400.991 775.567C398.708 775.932 396.425 776.297 394.142 776.662C393.898 776.701 393.641 776.746 393.454 776.906C393.271 777.062 393.185 777.301 393.114 777.53ZM423.226 783.642C425.011 783.665 426.798 783.486 428.543 783.11C428.958 783.021 429.395 782.907 429.691 782.602C430.126 782.154 430.122 781.452 430.09 780.828C429.998 779.017 429.906 777.205 429.813 775.394C429.78 774.747 429.708 774.019 429.203 773.615C428.76 773.259 428.133 773.281 427.566 773.319C425.582 773.455 423.597 773.59 421.613 773.725C421.298 773.746 420.968 773.773 420.705 773.947C420.225 774.265 420.153 774.931 420.14 775.508C420.095 777.428 420.173 779.351 420.374 781.261C420.432 781.814 420.512 782.397 420.854 782.835C421.386 783.518 422.361 783.631 423.226 783.642Z" fill="#FF9500"/>
<path fill-rule="evenodd" clip-rule="evenodd" d="M421.217 735.796C423.87 734.647 427.125 735.032 429.437 736.769C431.75 738.506 433.029 741.528 432.669 744.4C434.295 743.52 436.356 742.653 437.873 743.71C439.586 744.904 439.195 747.473 438.938 749.547C438.488 753.17 439.071 756.915 440.6 760.229C441.232 761.598 441.775 763.675 440.373 764.227C440.137 764.32 439.879 764.342 439.626 764.362C423.194 765.688 406.763 767.014 390.332 768.341C389.882 768.377 389.377 768.397 389.036 768.099C388.688 767.796 388.645 767.28 388.626 766.818C388.468 762.948 388.311 759.078 388.153 755.207C388.111 754.169 388.091 753.05 388.676 752.192C389.645 750.772 391.675 750.777 393.371 750.505C395.066 750.233 397.039 748.8 396.386 747.21C395.659 745.436 398.138 744.141 400.031 743.852C401.923 743.564 404.434 742.434 403.86 740.605C403.234 738.607 405.98 737.367 408.053 737.092C409.515 736.897 411.045 736.709 412.433 737.212C413.82 737.714 414.993 739.145 414.68 740.589C414.323 742.242 416.334 743.782 417.919 743.198C419.504 742.614 420.147 740.444 419.344 738.956C418.689 737.74 419.951 736.345 421.217 735.796ZM429.701 761.301C429.087 760.16 429.082 758.801 429.077 757.505C429.051 751.418 428.677 745.332 427.959 739.287C427.923 738.982 427.865 738.641 427.616 738.463C427.401 738.309 427.111 738.327 426.848 738.351C425.564 738.471 424.043 738.756 423.536 739.942C423.32 740.449 423.345 741.021 423.375 741.571C423.7 747.672 424.026 753.773 424.351 759.874C424.381 760.442 424.457 761.095 424.928 761.412C425.185 761.585 425.509 761.617 425.818 761.634C427.12 761.705 428.431 761.593 429.701 761.301ZM407.603 751.921C407.444 752.937 407.22 753.946 407.16 754.973C407.061 756.69 407.422 758.396 407.781 760.077C408.011 761.155 409.403 761.686 410.422 761.27C411.442 760.855 412.058 759.765 412.228 758.676C412.397 757.587 412.198 756.478 412.025 755.389C411.344 751.112 411.049 746.773 411.145 742.443C411.17 741.348 410.103 740.358 409.013 740.466C407.924 740.574 407.072 741.754 407.311 742.824C407.975 745.802 408.075 748.906 407.603 751.921ZM418.407 746.078C417.767 745.238 416.299 745.686 415.799 746.617C415.299 747.548 415.452 748.677 415.576 749.727C415.899 752.468 415.93 755.244 415.667 757.993C415.59 758.803 415.504 759.687 415.951 760.367C416.638 761.413 418.145 761.404 419.389 761.277C419.779 761.238 420.227 761.162 420.424 760.822C420.56 760.586 420.528 760.292 420.491 760.021C419.918 755.757 419.344 751.493 418.771 747.23C418.716 746.826 418.654 746.402 418.407 746.078ZM432.642 747.911C432.159 748.57 432.058 749.428 432.016 750.244C431.872 753.042 432.242 755.839 432.612 758.617C432.757 759.712 433.257 761.118 434.357 761.044C435.472 760.968 435.763 759.475 435.737 758.356C435.669 755.393 435.6 752.43 435.531 749.467C435.513 748.688 435.431 747.785 434.786 747.35C434.108 746.894 433.125 747.252 432.642 747.911ZM398.962 747.21C398.962 747.21 399.451 751.077 399.622 753.047C399.836 755.521 400.11 757.989 400.441 760.45C400.489 760.807 400.554 761.194 400.817 761.44C401.273 761.866 403.034 761.583 403.358 761.049C403.682 760.515 403.664 759.848 403.636 759.224C403.547 757.249 403.457 755.274 403.368 753.299C403.272 751.182 402.77 746.616 402.77 746.616M392.576 761.212C392.717 761.655 392.883 762.119 393.24 762.415C393.938 762.994 395.07 762.636 395.621 761.915C396.171 761.194 396.295 760.245 396.4 759.344C396.529 758.238 396.654 757.089 396.296 756.035C395.939 754.981 394.949 754.054 393.842 754.152C392.823 754.242 392.035 755.174 391.797 756.169C391.559 757.165 391.76 758.209 392.007 759.203C392.175 759.879 392.365 760.549 392.576 761.212Z" fill="#F1F5F9"/>
<path fill-rule="evenodd" clip-rule="evenodd" d="M459.184 602.866C457.857 604.86 456.419 606.88 454.366 608.112C452.314 609.343 449.48 609.583 447.635 608.056C445.6 606.372 445.475 603.336 445.636 600.698C445.698 599.682 445.779 598.658 446.07 597.683C446.574 595.991 447.675 594.548 448.824 593.209C450.218 591.586 451.762 590.019 453.696 589.105C455.63 588.191 458.034 588.031 459.846 589.168C462.015 590.529 462.818 593.424 462.407 595.954C461.996 598.484 460.603 600.733 459.184 602.866M454.97 604.976C456.643 603.192 458.078 601.184 459.224 599.023C459.979 597.6 460.621 596.054 460.591 594.444C460.561 592.834 459.713 591.151 458.219 590.553C456.274 589.775 454.138 591.02 452.513 592.343C451.355 593.285 450.235 594.318 449.492 595.613C449.023 596.432 448.718 597.333 448.416 598.227C447.844 599.919 447.264 601.683 447.482 603.456C447.7 605.229 448.967 607.009 450.741 607.192C452.383 607.362 453.84 606.181 454.97 604.976Z" fill="#FF9500"/>
<path fill-rule="evenodd" clip-rule="evenodd" d="M117.451 625.404C119.529 627.512 121.245 629.978 122.499 632.66C123.761 635.356 122.489 638.821 120.014 640.47C117.539 642.12 114.192 642.098 111.479 640.883C108.765 639.667 106.632 637.399 105.061 634.871C103.877 632.965 102.959 630.83 102.86 628.587C102.762 626.345 103.586 623.985 105.358 622.61C107.149 621.219 109.669 621.021 111.835 621.688C114.002 622.356 115.858 623.789 117.451 625.404M109.341 624.123C107.542 623.937 105.945 625.59 105.636 627.374C105.328 629.157 106.007 630.967 106.886 632.549C108.791 635.98 112.19 639.027 116.106 638.837C118.118 638.74 120.324 637.343 120.289 635.326C120.273 634.453 119.843 633.648 119.414 632.889C118.274 630.872 117.042 628.875 115.397 627.244C113.752 625.613 111.643 624.36 109.341 624.123Z" fill="#FF9500"/>
<path fill-rule="evenodd" clip-rule="evenodd" d="M274.588 890.784C276.032 889.686 277.827 888.975 279.637 889.092C281.446 889.209 283.236 890.248 283.993 891.898C284.806 893.668 284.299 895.868 283.032 897.347C281.765 898.825 279.855 899.642 277.928 899.911C276.613 900.095 275.045 899.93 274.325 898.813C273.978 898.273 273.899 897.61 273.829 896.972C273.704 895.827 273.578 894.682 273.453 893.537C273.4 893.052 273.349 892.548 273.504 892.086C273.688 891.542 274.132 891.131 274.588 890.784M280.3 894.076C280.51 893.915 280.73 893.74 280.821 893.492C281.114 892.695 279.965 892.165 279.117 892.184C277.886 892.212 276.308 893.042 276.685 894.216C276.903 894.895 277.738 895.209 278.439 895.084C279.141 894.959 279.735 894.511 280.3 894.076H280.3Z" fill="#122E82"/>
<path fill-rule="evenodd" clip-rule="evenodd" d="M479.065 524.719C490.313 536.379 499.19 550.321 505.002 565.451C505.401 566.491 505.788 567.645 505.407 568.691C502.475 576.746 496.817 583.461 491.27 589.99L480.635 602.506C477.251 606.489 473.866 610.473 470.368 614.356C452.555 634.125 431.508 651.412 407.131 662.048C406.211 662.449 405.224 662.85 404.234 662.689C403.243 662.529 402.315 661.566 402.574 660.595C405.588 649.314 408.621 637.519 406.202 626.094C405.619 623.339 404.969 619.869 407.243 618.211C425.653 604.786 438.908 585.597 451.611 566.668C454.805 561.909 457.991 557.136 460.818 552.149C465.836 543.294 469.701 533.785 472.284 523.937C472.639 522.586 474.342 521.977 475.692 522.332C477.042 522.686 478.096 523.714 479.065 524.719ZM471.193 539.199C470.05 538.726 468.996 540.006 468.413 541.099C467.783 542.282 467.153 543.466 466.523 544.652C454.869 566.572 443.037 588.828 425.279 606.093C423.601 607.724 421.726 609.695 422.035 612.016C423.026 619.457 419.059 627.314 412.488 630.927C409.505 632.567 409.54 636.799 409.977 640.178C410.152 641.532 410.662 643.228 412.02 643.342C416.002 643.678 419.824 645.641 422.42 648.684C423.239 649.644 424.791 649.044 425.858 648.372C452.724 631.459 473.366 606.478 493.521 581.932C494.216 581.086 494.956 580.019 494.594 578.984C491.544 570.284 492.033 560.397 495.926 552.041C493.629 547.464 490.891 543.108 487.763 539.055C482.558 541.317 476.436 541.371 471.193 539.199ZM407.47 657.58C408.529 658.136 409.812 657.608 410.872 657.054C413.659 655.597 416.343 653.944 418.898 652.11C419.573 651.626 419.774 650.658 419.535 649.861C419.297 649.065 418.699 648.422 418.037 647.919C415.972 646.349 413.084 645.936 410.662 646.865C410.215 647.036 409.77 647.26 409.462 647.627C409.1 648.057 408.969 648.63 408.853 649.179C408.267 651.957 407.806 654.761 407.47 657.58ZM482.914 533.405C481.089 529.83 478.273 526.769 474.866 524.654C473.681 525.701 473.45 527.29 473.215 528.911C473.054 530.024 472.891 531.15 472.415 532.126C472.261 532.444 472.071 532.748 471.882 533.051C471.523 533.629 471.165 534.204 471.049 534.867C470.873 535.878 471.728 537.147 472.697 536.812C473.485 536.54 474.311 536.715 475.144 536.891C475.584 536.984 476.026 537.078 476.465 537.106C479.023 537.271 481.146 535.264 482.914 533.405ZM497.383 554.827C495.428 558.722 495.737 563.323 496.093 567.668L496.603 573.899C496.659 574.585 497.031 575.509 497.691 575.32C498.1 574.172 498.881 573.225 499.663 572.275C500.347 571.445 501.032 570.613 501.473 569.642C502.966 566.356 501.309 562.568 499.677 559.349L497.383 554.827ZM409.846 623.989C409.928 625.208 411.192 626.121 412.411 626.086C413.631 626.052 414.729 625.262 415.441 624.27C416.154 623.279 416.545 622.098 416.926 620.937L418.183 617.104C418.533 616.036 418.555 614.402 417.439 614.277C417.036 614.231 416.651 614.445 416.321 614.68C415.07 615.571 414.159 616.85 413.272 618.104L410.857 621.521C410.333 622.262 409.785 623.083 409.846 623.989ZM121.757 613.761C113.271 598.202 107.854 580.972 105.908 563.351C105.788 562.268 104.595 561.566 103.507 561.603C102.419 561.641 101.431 562.217 100.506 562.791C87.3699 570.947 76.1882 582.235 68.1507 595.455C67.3371 596.793 66.535 598.214 66.4323 599.777C66.3315 601.312 66.9164 602.8 67.5192 604.214C76.3854 625.015 91.1707 642.658 106.179 659.559C117.739 672.576 130.114 685.752 146.232 692.304C148.837 693.363 152.621 693.795 153.725 691.206C154.046 690.452 154.029 689.605 154.012 688.785L154.012 688.754C153.834 679.978 154.83 671.178 156.965 662.664C157.459 660.694 157.715 658.037 155.875 657.183C148.955 653.972 144.212 647.496 139.776 641.282C133.403 632.351 127.012 623.394 121.757 613.761ZM136.736 681.773C135.782 682.028 134.83 681.425 134.034 680.841C119.365 670.078 107.997 655.511 96.8273 641.14L77.1161 615.778C80.4433 613.656 80.8657 609.046 80.9382 605.096C81.0325 599.963 81.1013 594.677 79.2494 589.889C78.8378 588.825 79.3737 587.646 79.9475 586.66C82.4087 582.431 85.8218 578.761 89.8595 576.003C90.2504 575.736 90.6642 575.47 91.1327 575.404C92.3692 575.229 93.3178 576.434 93.9786 577.495C96.5883 581.685 100.175 586.425 105.095 586.08C106.968 585.948 108.007 588.158 108.553 589.957C115.349 612.33 128.109 632.51 143.072 650.464C145.017 652.797 145.505 655.946 145.988 659.066C146.527 662.545 147.061 665.989 149.603 668.226C151.773 670.136 151.37 673.567 150.785 676.4C150.665 676.98 150.522 677.601 150.082 677.997C149.756 678.291 149.314 678.413 148.89 678.526L136.736 681.773ZM101.961 580.896C99.2695 579.013 96.945 576.607 95.1547 573.851C94.7675 573.255 94.3914 572.587 94.4594 571.88C94.5333 571.11 95.1115 570.494 95.6869 569.978C97.1077 568.705 98.7135 567.639 100.438 566.824C101.069 566.526 101.885 566.284 102.409 566.745C102.718 567.017 102.816 567.451 102.896 567.855L105.382 580.303C105.529 581.039 104.758 581.702 104.009 581.723C103.26 581.744 102.575 581.326 101.961 580.896ZM77.3637 604.973C77.311 607.315 77.1323 609.942 75.38 611.494C75.0133 611.537 74.7698 611.134 74.6261 610.793C73.3635 607.801 72.0835 604.736 71.8847 601.493C71.6859 598.25 72.7712 594.739 75.4174 592.859C75.7755 592.604 76.3007 592.394 76.6167 592.7C76.7438 592.822 76.7981 593 76.8444 593.171C77.5634 595.817 77.5069 598.605 77.4452 601.347L77.3637 604.973ZM148.773 682.857C149.198 683.206 149.243 683.829 149.254 684.378L149.381 690.397C146.915 689.028 144.553 687.473 142.322 685.748C141.899 685.421 141.434 684.891 141.693 684.423C141.821 684.191 142.088 684.079 142.337 683.987C143.932 683.398 145.582 682.957 147.258 682.669C147.776 682.581 148.366 682.524 148.773 682.857ZM148.915 659.151C148.893 658.879 148.893 658.583 149.054 658.363C149.48 657.783 150.404 658.308 150.794 658.912C151.735 660.367 151.943 662.272 151.338 663.895C149.956 662.709 149.066 660.966 148.915 659.151ZM516.145 613.45C518.602 610.351 523.081 609.905 527.032 610.002C527.955 610.025 528.904 610.069 529.745 610.453C532.082 611.519 532.578 614.578 532.657 617.148C532.729 619.487 532.715 621.857 532.148 624.127C531.58 626.397 530.406 628.584 528.528 629.978C527.684 630.604 526.705 631.06 525.669 631.234C524.068 631.502 522.43 631.09 520.908 630.524C518.881 629.768 516.958 628.73 515.213 627.45C514.361 626.824 513.48 626.005 513.453 624.947C513.389 622.508 513.662 620.059 514.261 617.694C514.644 616.182 515.176 614.672 516.145 613.45ZM522.514 628.884C525.669 629.791 529.025 627.347 530.22 624.286C531.415 621.225 530.973 617.786 530.316 614.566C530.064 613.33 528.744 612.639 527.528 612.308C525.645 611.797 523.644 611.729 521.73 612.112C520.78 612.302 519.809 612.628 519.141 613.333C518.778 613.716 518.526 614.19 518.279 614.658L516.431 618.156C516.106 618.771 515.779 619.392 515.588 620.061C515.016 622.063 515.772 624.286 517.167 625.829C518.563 627.371 520.515 628.31 522.514 628.884ZM480.288 664.255C483.181 665.266 485.803 667.044 487.815 669.359C489.544 671.348 490.861 673.931 490.498 676.543C490.364 677.502 490.011 678.417 489.608 679.297C488.082 682.63 485.457 685.825 481.852 686.471C479.961 686.809 478.011 686.403 476.193 685.784C474.09 685.067 472.084 684.062 470.251 682.806C469.278 682.139 468.313 681.348 467.886 680.248C467.592 679.489 467.583 678.654 467.594 677.841C467.622 675.83 467.755 673.784 468.455 671.899C469.341 669.513 471.075 667.544 472.913 665.787C473.652 665.08 474.436 664.384 475.386 664.005C476.939 663.385 478.709 663.703 480.288 664.255ZM483.245 681.788C485.336 679.716 486.553 676.712 486.222 673.786C485.89 670.859 483.912 668.112 481.145 667.113C479.996 666.698 478.72 666.582 477.543 666.908C476.907 667.084 476.311 667.384 475.755 667.739C473.373 669.255 471.701 671.843 471.295 674.64C470.889 677.437 471.756 680.394 473.608 682.527C474.794 683.893 476.729 684.478 478.522 684.252C480.315 684.025 481.961 683.061 483.245 681.788ZM219.192 647.001C219.095 645.621 217.252 645.259 215.872 645.3C208.621 645.513 201.381 646.057 194.18 646.93C192.997 647.073 192.902 648.982 193.851 649.704C194.8 650.425 196.123 650.291 197.302 650.123L219.192 647.001ZM196.015 656.333C196.077 655.622 196.969 655.365 197.677 655.285L240.379 650.442C241.152 650.355 241.974 650.275 242.669 650.624C243.364 650.972 243.812 651.925 243.359 652.557C243.024 653.022 242.382 653.117 241.812 653.172L198.135 657.417C197.227 657.505 195.935 657.243 196.015 656.333ZM291.748 663.536C289.359 664.062 286.907 663.198 284.616 662.341C277.207 659.568 269.827 656.719 262.478 653.794C259.511 652.613 256.255 654.381 253.586 656.137C245.864 661.217 238.429 666.735 231.329 672.655C229.505 674.176 226.698 673.109 224.859 671.607C224.47 671.29 224.087 670.951 223.703 670.611C222.271 669.343 220.82 668.059 218.967 667.796C216.118 667.391 213.612 669.553 211.548 671.56L198.238 684.505C196.448 686.246 194.564 689.034 196.157 690.957C197.208 692.226 199.138 692.161 200.774 691.971C209.311 690.98 217.807 689.591 226.3 688.202L226.3 688.201L226.301 688.201L226.301 688.201L226.301 688.201L226.302 688.201L226.302 688.201L226.302 688.201L226.302 688.201L226.303 688.201L226.303 688.201L226.303 688.201L226.303 688.201L226.304 688.201C240.342 685.905 254.372 683.61 268.571 683.118C271.718 683.009 274.866 682.989 278.015 682.969C279.986 682.956 281.958 682.943 283.929 682.909C292.82 682.754 301.703 682.154 310.534 681.112C310.961 681.062 311.447 680.974 311.669 680.605C311.836 680.326 311.794 679.974 311.747 679.653L308.006 654.166C307.816 652.871 307.484 651.374 306.302 650.814C305.108 650.249 303.702 650.978 302.722 651.864C301.188 653.252 300.006 655.094 298.841 656.911C296.929 659.893 295.06 662.807 291.748 663.536ZM231.002 677.482C238.991 670.904 247.321 664.742 255.948 659.028C257.719 657.855 259.872 656.654 261.852 657.424L282.769 665.564C286.26 666.922 290.079 668.298 293.663 667.209C297.829 665.943 300.319 661.792 302.417 657.971C302.826 657.228 304.013 657.314 304.6 657.924C305.188 658.535 305.337 659.433 305.458 660.273L306.989 670.901C307.224 672.533 307.455 674.227 306.984 675.807C306.513 677.387 305.13 678.822 303.483 678.79C276.558 678.27 249.58 680.493 223.101 685.415C222.285 685.567 221.468 685.721 220.651 685.876L220.64 685.878C214.315 687.073 207.966 688.274 201.537 688.295C204.641 683.892 208.575 680.153 212.481 676.445C214.625 674.409 217.307 672.213 220.186 672.879C221.741 673.239 222.933 674.357 224.12 675.47L224.12 675.471C224.5 675.828 224.88 676.184 225.271 676.514C226.881 677.875 229.375 678.822 231.002 677.482ZM576.438 751.624C575.724 751.891 574.927 751.709 574.2 751.48C569.277 749.93 565.278 746.464 561.348 743.057L561.348 743.057L561.348 743.056L561.347 743.056L561.347 743.056L561.347 743.056C560.815 742.595 560.284 742.135 559.753 741.681C553.241 736.119 546.175 731.209 538.693 727.047C537.931 726.624 537.133 726.178 536.667 725.442C536.2 724.705 536.214 723.584 536.933 723.093C540.289 720.799 542.465 716.862 542.624 712.797C542.667 711.714 543.889 710.992 544.969 711.078C546.048 711.165 546.988 711.815 547.871 712.442L582.061 736.745C582.726 737.218 583.443 737.767 583.606 738.568C583.739 739.221 583.466 739.883 583.191 740.49C581.716 743.748 580.02 746.906 578.119 749.934C577.688 750.62 577.196 751.341 576.438 751.624ZM542.235 722.793C541.833 723.503 541.485 724.53 542.136 725.021L570.036 746.057C571.564 747.209 573.938 748.289 575.141 746.8C576.523 745.09 577.813 743.307 579.005 741.459C579.331 740.954 579.664 740.376 579.546 739.786C579.439 739.247 578.987 738.856 578.56 738.51C568.321 730.197 557.48 722.627 546.151 715.879L542.235 722.793ZM528.348 735.658C528.799 734.884 529.346 734.038 530.22 733.848C530.889 733.702 531.569 733.989 532.185 734.289C535.544 735.922 538.621 738.137 541.238 740.804C541.868 741.446 541.946 742.479 541.666 743.334C541.386 744.189 540.808 744.909 540.242 745.607C539.331 746.73 538.361 747.898 537.019 748.431C535.569 749.006 533.883 748.729 532.51 747.989C531.138 747.249 530.036 746.091 529.065 744.869C527.799 743.276 526.665 741.366 526.861 739.339C526.99 738.011 527.677 736.811 528.348 735.658ZM534.225 744.578C536.338 745.401 537.689 744.749 537.745 743.361C537.78 742.485 537.017 741.811 536.323 741.277L534.225 739.661C533.531 739.126 532.766 738.567 531.892 738.572C531.017 738.578 530.126 739.481 530.484 740.281C530.43 740.667 532.112 743.755 534.225 744.578ZM525.883 761.659C526.398 761.942 526.944 762.218 527.532 762.23C528.119 762.243 528.756 761.91 528.9 761.34C529.239 760.001 530.123 758.891 530.989 757.805L530.99 757.803L530.992 757.801L530.993 757.799C531.086 757.683 531.179 757.566 531.271 757.45C532.219 756.248 533.134 754.887 533.159 753.356C533.185 751.824 531.918 750.192 530.403 750.401C529.209 750.566 528.099 749.782 527.232 748.944C527.094 748.81 526.957 748.673 526.819 748.536C526.094 747.811 525.356 747.075 524.393 746.76C523.247 746.387 521.687 746.981 521.596 748.185C521.413 750.608 519.402 752.433 517.536 753.987C516.978 754.452 517.482 755.345 518.004 755.85C520.356 758.127 523.014 760.086 525.883 761.659ZM526.255 757.041L522.581 754.551C521.646 753.918 521.721 752.368 522.554 751.606C523.387 750.844 524.682 750.786 525.744 751.167C526.806 751.549 527.689 752.297 528.547 753.03C529.115 753.516 529.194 754.399 528.934 755.1C528.674 755.801 528.145 756.363 527.629 756.904C527.453 757.089 527.256 757.285 527.002 757.318C526.732 757.352 526.48 757.193 526.255 757.041ZM555.389 757.205L557.186 753.382C557.736 752.211 558.269 750.763 557.526 749.704C557.268 749.337 556.888 749.077 556.516 748.827L549.979 744.415C549.274 743.939 548.509 743.445 547.659 743.458C546.652 743.474 545.808 744.194 545.093 744.905C544.021 745.968 543.02 747.102 542.096 748.297C541.393 749.207 540.816 750.703 541.776 751.334L551.78 757.906C552.569 758.425 553.571 758.958 554.4 758.507C554.887 758.242 555.153 757.707 555.389 757.205ZM553.171 754.498C552.751 754.595 552.313 754.488 551.9 754.363C549.375 753.601 547.063 752.142 545.288 750.189C544.697 749.539 545.031 748.392 545.781 747.936C546.532 747.481 547.507 747.586 548.316 747.926C548.838 748.145 549.316 748.452 549.795 748.758L549.795 748.758C550.058 748.926 550.32 749.094 550.59 749.248C550.88 749.413 551.183 749.565 551.486 749.717C552.345 750.149 553.206 750.581 553.793 751.328C554.586 752.337 554.422 754.21 553.171 754.498ZM556.551 758.769C557.704 758.494 558.056 757.317 558.422 756.094C558.725 755.083 559.037 754.04 559.818 753.449C561.163 752.43 563.068 753.281 564.517 754.145L569.125 756.89C569.859 757.327 570.611 757.78 571.138 758.454C571.664 759.127 571.923 760.082 571.555 760.854C571.309 761.369 570.844 761.711 570.376 762.055C569.992 762.337 569.605 762.621 569.336 763.004C568.989 763.496 568.86 764.112 568.733 764.72C568.573 765.484 568.416 766.237 567.834 766.717C566.773 767.592 565.196 766.891 564.023 766.173L557.531 762.2C556.876 761.8 556.185 761.36 555.864 760.662C555.542 759.964 555.804 758.947 556.551 758.769ZM565.061 762.714C565.991 762.396 566.738 761.706 567.456 761.034C567.975 760.547 567.28 759.745 566.66 759.395L562.682 757.153C562.267 756.919 561.69 756.705 561.368 757.057C560.332 758.189 560.182 760.037 561.021 761.322C561.86 762.607 563.61 763.21 565.061 762.714ZM519.426 762.574C518.536 762.322 517.629 762.066 516.902 761.57C515.773 760.799 514.2 760.985 513.015 761.667C511.83 762.349 510.946 763.441 510.091 764.509C509.616 765.102 509.129 765.72 508.947 766.457C508.766 767.195 508.982 768.089 509.645 768.459L516.581 772.33C517.106 772.623 517.693 772.926 518.279 772.796C518.864 772.666 519.267 772.146 519.619 771.661L521.404 769.202C522.397 767.833 523.435 766.089 522.709 764.561C522.126 763.336 520.795 762.96 519.426 762.574ZM517.23 768.943C516.868 769.039 516.494 768.864 516.16 768.693L511.435 766.285C512.343 764.998 514.071 764.504 515.638 764.66C517.205 764.816 518.659 765.513 520.077 766.2L517.905 768.458C517.71 768.66 517.501 768.871 517.23 768.943ZM484.494 672.65C485.226 673.767 484.997 675.26 484.511 676.504C483.872 678.145 482.791 679.664 481.264 680.536C479.736 681.409 477.731 681.536 476.242 680.599C474.754 679.661 474.007 677.576 474.805 676.007C474.989 675.644 475.241 675.322 475.492 675.001L475.492 675.001C475.733 674.693 475.974 674.385 476.156 674.041C476.276 673.814 476.369 673.574 476.463 673.334C476.597 672.988 476.731 672.642 476.944 672.34C477.702 671.266 479.194 671.055 480.507 671.073C481.996 671.094 483.677 671.403 484.494 672.65ZM481.171 673.36C479.134 673.334 477.223 675.045 477.021 677.075C476.938 677.905 477.29 678.937 478.115 679.051C478.733 679.137 479.275 678.659 479.691 678.192C480.569 677.206 481.324 676.109 481.932 674.935C482.136 674.542 482.315 674.036 482.047 673.683C481.852 673.426 481.494 673.364 481.171 673.36ZM529.901 620.145C529.744 618.277 528.496 616.44 526.683 615.971C524.38 615.377 522.148 617.001 520.32 618.524C519.779 618.975 519.214 619.459 518.985 620.125C518.596 621.255 519.296 622.447 519.984 623.423C520.773 624.541 521.615 625.665 522.766 626.404C523.917 627.143 525.451 627.43 526.658 626.788C527.274 626.461 527.753 625.926 528.169 625.366C529.286 623.862 530.058 622.014 529.901 620.145ZM524.795 624.935C524.014 625.052 523.205 624.736 522.63 624.194C521.769 623.383 521.428 622.078 521.729 620.933C522.045 619.727 523.056 618.731 524.265 618.434C525.474 618.137 526.83 618.55 527.669 619.472C527.637 619.723 527.611 619.976 527.585 620.228L527.585 620.229C527.496 621.088 527.407 621.948 527.109 622.755C526.725 623.8 525.894 624.77 524.795 624.935ZM462.803 916.359C467.05 901.317 475.067 887.664 483.001 874.202C484.342 871.926 486.004 869.42 488.608 868.989C489.634 868.818 490.175 867.702 490.524 866.72C494.828 854.633 495.242 841.191 491.693 828.86C490.679 825.341 491.927 821.61 493.161 818.161L502.717 791.466C501.724 789.745 499.844 788.989 497.941 788.222C496.348 787.582 494.738 786.934 493.615 785.708C490.443 782.246 492.836 776.741 495.321 772.756L538.878 702.902C540.657 700.05 544.56 699.155 547.832 699.916C551.104 700.676 553.898 702.738 556.588 704.75L588.356 728.511C594.039 732.762 600.313 738.192 599.986 745.288C599.805 749.214 597.561 752.704 595.391 755.98L570.214 793.97C566.959 798.882 566.564 804.855 566.167 810.854C565.988 813.568 565.808 816.287 565.363 818.916C563.192 831.743 554.662 842.365 546.489 852.542C546.163 852.948 545.838 853.353 545.513 853.758C537.055 864.307 528.592 876.087 528.116 889.607C527.55 905.722 519.905 921.461 507.595 931.855L518.307 905.831C520.854 899.643 523.213 891.943 518.95 886.787C517.021 884.454 514.106 883.22 511.307 882.071L494.671 875.235C493.523 874.764 492.341 874.285 491.101 874.278C487.236 874.254 484.937 878.451 483.37 881.99C477.948 894.229 471.024 905.8 462.803 916.359ZM517.506 881.018C520.359 882.075 524.375 882.718 525.727 879.989C532.269 866.783 538.991 853.322 549.404 842.902C555.407 836.896 559.086 828.882 561.168 820.644C563.249 812.407 563.839 803.876 564.42 795.399C561.893 796.32 561.673 799.735 561.684 802.428C561.707 808.365 560.671 814.305 558.638 819.882C558.213 821.049 557.641 822.31 556.502 822.803C555.363 823.295 553.685 822.306 554.067 821.124C557.006 812.052 558.101 802.386 557.267 792.886C557.008 789.94 556.46 786.789 554.369 784.702C554.596 789.353 554.823 794.025 554.352 798.657C553.538 806.672 550.668 814.314 547.824 821.85C547.454 822.828 547.008 823.895 546.069 824.355C545.131 824.814 543.675 824.086 543.921 823.069L548.18 805.436C550.522 795.741 552.825 785.312 549.2 776.021C547.374 775.899 546.944 778.513 547.107 780.339C548.223 792.842 544.772 805.252 541.354 817.329C540.955 818.739 539.543 820.502 538.446 819.533C537.973 819.114 537.951 818.394 537.99 817.763C538.205 814.211 539.177 810.773 540.149 807.338L540.149 807.338C540.45 806.272 540.751 805.207 541.03 804.138C543.598 794.288 544.253 783.942 542.948 773.847C540.697 776.735 539.743 780.398 538.842 783.948L533.496 805.022C531.079 814.549 527.991 825.022 519.61 830.14C518.943 830.548 518.169 830.926 517.408 830.746C516.462 830.521 515.927 829.543 515.532 828.654C510.184 816.59 509.516 802.515 513.697 789.998C513.951 789.238 513.18 788.444 512.382 788.381C511.585 788.318 510.838 788.753 510.184 789.215C503.323 794.064 500.694 802.847 498.512 810.967L495.609 821.765C495.185 823.342 494.759 824.933 494.671 826.564C494.536 829.042 495.182 831.468 495.825 833.88L495.826 833.88L495.826 833.881C495.975 834.44 496.124 834.998 496.262 835.556C499.054 846.774 497.793 858.958 492.763 869.364C492.022 870.899 493.979 872.294 495.575 872.886L517.506 881.018ZM528.347 777.967C527.202 777.178 525.977 776.277 525.623 774.932C525.08 772.869 527.043 770.796 529.155 770.519C531.268 770.241 533.334 771.262 535.085 772.478C537.551 774.191 540.672 771.579 542.518 769.21C540.027 767.718 537.651 765.402 537.553 762.497C537.455 759.592 540.981 756.826 543.329 758.535C544.239 759.198 545.341 759.604 546.431 760.006C548.063 760.607 549.668 761.199 550.564 762.63C551.582 764.258 551.22 766.46 550.183 768.077C549.146 769.693 547.551 770.854 545.993 771.975C548.229 772.197 550.406 772.995 552.257 774.272L554.273 768.388C554.43 767.931 554.6 767.454 554.958 767.132C555.649 766.511 556.725 766.703 557.61 766.984C559.932 767.722 562.21 768.874 563.742 770.77C565.275 772.667 565.914 775.421 564.843 777.613C563.772 779.804 560.749 780.973 558.701 779.651C558.276 779.377 557.85 779.011 557.423 778.645L557.422 778.644C556.281 777.665 555.139 776.686 554.037 777.469C557.402 780.093 559.713 784.035 560.362 788.256C570.955 772.098 581.434 755.865 591.799 739.559C592.788 738.003 593.586 735.549 591.975 734.654C585.092 730.831 579.008 725.709 572.939 720.601L572.938 720.6C565.277 714.152 557.639 707.722 548.446 703.947C547.863 703.707 547.225 703.475 546.615 703.636C545.976 703.805 545.526 704.362 545.124 704.887C528.005 727.262 512.642 750.983 499.221 775.759C497.349 779.216 499.855 783.336 502.252 786.451C503.45 788.007 505.762 789.651 507.068 788.185C508.714 786.337 511.414 785.281 513.745 786.106C516.077 786.931 517.527 789.967 516.259 792.093C515.342 793.631 517.138 795.34 518.706 796.201C521.84 797.92 525.055 799.491 528.337 800.908C528.793 801.105 529.324 801.298 529.768 801.075C530.191 800.863 530.362 800.359 530.495 799.904L534.13 787.378C534.728 785.318 535.128 782.644 533.364 781.427L528.347 777.967ZM593.38 742.854C592.897 742.688 592.456 743.172 592.173 743.596L564.953 784.398C564.221 785.496 563.471 786.638 563.257 787.94C563.044 789.242 563.522 790.757 564.706 791.337C566.666 792.297 568.717 790.279 569.975 788.494L595.265 752.6C597.143 749.935 595.553 746.292 593.946 743.455C593.807 743.21 593.646 742.945 593.38 742.854ZM516.742 797.339C516.263 796.99 515.547 797.198 515.145 797.635C514.744 798.072 514.58 798.67 514.429 799.244C514.057 800.657 513.683 802.084 513.628 803.544C513.573 805.004 513.838 806.455 514.102 807.892L516.708 822.081C516.818 822.676 516.946 823.308 517.367 823.741C517.788 824.175 518.609 824.269 518.95 823.769C522.808 818.119 526.72 812.359 528.738 805.819C528.989 805.006 529.062 803.863 528.267 803.563C524.169 802.02 520.281 799.92 516.742 797.339ZM546.844 762.331C545.537 761.085 543.81 760.289 542.015 760.105C540.379 759.938 539.434 762.24 540.182 763.708C540.929 765.175 542.579 765.902 544.106 766.515C545.183 766.948 546.491 767.355 547.43 766.672C548.78 765.691 548.052 763.483 546.844 762.331ZM536.097 778.772C536.629 778.393 536.699 777.617 536.55 776.98C535.988 774.578 533.358 773.351 530.997 772.648C530.084 772.375 528.948 772.186 528.304 772.889C527.766 773.477 527.881 774.449 528.345 775.097C528.808 775.744 529.533 776.144 530.234 776.521L533.88 778.488C534.574 778.862 535.455 779.229 536.097 778.772ZM556.846 770.117C556.074 771.152 556.152 772.658 556.797 773.777C557.441 774.897 558.556 775.674 559.734 776.204C560.137 776.385 560.58 776.545 561.014 776.458C561.387 776.384 561.706 776.132 561.934 775.827C562.777 774.7 562.368 773.002 561.402 771.978C560.437 770.954 559.064 770.441 557.742 769.961C557.514 769.878 557.249 769.798 557.04 769.923C556.961 769.971 556.901 770.043 556.846 770.117ZM191.117 863.958C191.622 860.222 192.33 856.109 195.262 853.743C197.599 851.856 200.809 851.555 203.811 851.497C213.645 851.308 223.511 852.907 232.783 856.194C235.717 857.233 238.787 858.603 240.391 861.273C242.127 864.164 241.704 867.81 241.224 871.148L233.776 922.958C238.912 907.954 242.598 892.453 244.769 876.742C245.781 869.412 246.134 861.001 241.025 855.655C233.051 847.309 233.268 835.421 233.489 823.334C233.68 812.902 233.874 802.321 228.806 793.74C227.153 790.94 230.839 788.05 233.905 786.975C247.419 782.237 261.824 780.063 276.131 780.602C278.755 801.352 279.464 822.344 278.248 843.224C277.976 847.907 284.608 849.115 289.263 848.598L450.776 830.664C451.584 830.574 452.459 830.453 453.031 829.876C453.7 829.202 453.733 828.142 453.724 827.192C453.343 789.297 452.254 751.409 450.457 713.555C450.387 712.078 450.2 710.381 448.978 709.55C448.063 708.926 446.858 709.009 445.756 709.116L330.474 720.307C338.047 684.538 345.664 648.099 342.209 611.699C317.008 628.525 284.489 628.399 254.253 626.617C252.996 626.543 251.737 626.468 250.475 626.392C221.377 624.651 191.032 622.835 164.873 635.44C178.57 671.806 192.424 711.502 181.038 748.66C180.031 751.947 178.832 755.176 177.634 758.404C175.787 763.381 173.942 768.354 172.8 773.53C170.919 782.065 171.201 791.621 176.245 798.754C183.549 809.083 189.353 820.828 190.677 833.415C191.933 845.359 189.126 857.205 186.322 869.037C183.393 881.401 180.467 893.749 182.182 906.18C182.473 908.283 182.997 910.545 184.641 911.885L191.117 863.958ZM202.545 713.864C205.6 713.972 206.814 717.812 207.204 720.847L210.297 744.883C204.259 741.749 195.765 747.069 195.938 753.878C190.85 744.044 190.077 732.773 189.312 721.617C189.146 719.19 188.98 716.769 188.769 714.368C186.523 688.701 178.798 663.875 171.121 639.283C170.027 635.776 174.755 633.502 178.385 632.969C202.207 629.472 226.316 629.954 250.437 630.438C261.37 630.657 272.306 630.876 283.218 630.724C302.607 630.455 323.123 628.617 338.851 617.259C342.386 640.858 337.582 664.668 332.837 688.178C332.196 691.359 331.555 694.533 330.936 697.701C325.743 724.289 322.209 752.629 332.144 777.828C332.563 778.889 331.136 779.69 330.02 779.923C321.848 781.63 313.399 781.998 305.11 781.007C301.555 780.582 298.037 779.91 294.518 779.239C291.868 778.733 289.218 778.227 286.551 777.826C266.475 774.81 245.519 777.941 227.196 786.695C226.461 787.046 225.588 786.881 224.819 786.615C221.108 785.328 218.461 781.895 217.14 778.192C215.819 774.489 215.63 770.492 215.454 766.563L214.715 750.087C214.688 749.495 214.843 748.691 215.435 748.673C247.532 747.669 279.593 745.502 311.534 742.178C310.183 734.61 310.049 726.826 311.138 719.216C311.826 714.412 307.315 710.032 302.511 709.389C297.707 708.746 292.957 710.925 288.968 713.682C287.476 714.713 286.043 715.834 284.611 716.953C282.216 718.826 279.822 720.698 277.157 722.148C275.413 723.097 273.315 723.862 271.483 723.096C269.241 722.158 268.49 719.487 267.819 717.103C267.777 716.953 267.735 716.805 267.693 716.658C266.819 713.587 265.375 710.532 262.836 708.601C260.297 706.67 256.466 706.189 253.96 708.163C251.818 709.85 251.14 712.772 250.781 715.478C250.749 715.718 250.718 715.96 250.687 716.203C250.369 718.691 250.04 721.262 248.557 723.257C246.93 725.447 243.299 726.385 241.514 724.322C237.984 720.242 231.79 719.387 226.592 720.819C221.395 722.25 216.947 725.557 212.635 728.797C210.034 724.72 209.818 719.23 212.093 714.962L212.131 714.891C212.558 714.09 213.049 713.169 212.671 712.353C212.437 711.848 211.921 711.538 211.409 711.318C208.351 710.005 204.444 711.127 202.545 713.864ZM294.449 782.762C296.159 783.103 298.261 783.867 298.367 785.61C299.375 802.232 312.567 817.169 328.785 820.848C345.004 824.527 362.979 817.088 372.436 803.389C381.893 789.691 382.633 770.662 374.879 755.931C366.562 740.132 346.352 731.742 329.313 737.014C328.522 733.523 328.611 729.836 329.57 726.387C329.747 725.747 329.979 725.077 330.496 724.659C331 724.251 331.681 724.158 332.325 724.08L380.325 718.291C384.545 717.782 388.775 717.272 393.025 717.237C411.303 717.086 429.566 715.261 447.513 711.792C450.302 749.29 451.614 786.898 451.445 824.499C451.438 826.283 450.895 828.653 449.115 828.705C418.906 829.587 388.936 833.566 358.953 837.547C338.809 840.221 318.66 842.896 298.43 844.633C293.921 845.02 289.381 845.361 284.876 844.931C284.059 844.853 283.138 844.686 282.694 843.995C282.427 843.578 282.397 843.057 282.374 842.562L279.681 782.419C279.646 781.642 279.693 780.705 280.365 780.315C280.81 780.056 281.368 780.15 281.873 780.25L294.449 782.762ZM211.802 768.838C211.325 771.961 210.788 775.476 212.831 777.839C220.454 786.654 228.373 796.073 230.399 807.556C231.345 812.918 230.939 818.437 230.534 823.933C230.024 830.857 229.517 837.745 231.718 844.24C231.776 844.409 231.835 844.579 231.895 844.749C232.299 845.907 232.712 847.087 232.58 848.296C232.43 849.683 231.228 851.077 229.856 850.84L213.92 848.088C208.643 847.177 203.068 846.29 198.055 848.177C197.086 848.541 195.97 847.901 195.451 847.004C194.932 846.107 194.863 845.028 194.818 843.992C194.764 842.741 194.723 841.482 194.682 840.219C194.425 832.275 194.163 824.182 190.491 817.222L178.775 795.014C177.046 791.735 175.276 788.31 175.157 784.605C175.077 782.13 175.744 779.699 176.406 777.313L182.25 756.231C183.48 751.793 184.782 747.214 187.696 743.649C194.775 755.676 195.474 771.235 189.501 783.849C188.948 785.016 190.636 786.218 191.839 785.752C193.043 785.287 193.653 783.967 194.078 782.748C195.777 777.863 196.372 772.713 196.969 767.555C197.452 763.382 197.935 759.205 199.003 755.158C199.658 752.68 200.602 750.149 202.514 748.443C204.425 746.737 207.543 746.153 209.545 747.75C211.078 748.973 211.577 751.062 211.868 753.002C212.637 758.121 212.634 763.356 211.858 768.475C211.839 768.595 211.821 768.716 211.802 768.838ZM239.297 727.219C241.646 729.019 243.947 730.782 246.765 730.455C250.347 730.04 252.58 726.347 253.62 722.89C253.848 722.133 254.05 721.359 254.253 720.582C254.978 717.812 255.708 715.02 257.606 712.936C258.158 712.33 258.952 711.766 259.736 712.004C260.371 712.196 260.74 712.84 261.035 713.435C261.453 714.278 261.848 715.135 262.243 715.992C263.358 718.411 264.474 720.83 266.093 722.931C268.286 725.777 271.698 728.016 275.267 727.624C278.458 727.274 280.952 725.011 283.382 722.806C283.88 722.354 284.376 721.904 284.874 721.473C290.728 716.419 298.351 713.461 306.078 713.248C305.035 715.856 305.73 718.701 306.412 721.493C306.576 722.165 306.74 722.834 306.878 723.496C307.969 728.718 307.417 734.272 305.321 739.176L253.715 743.155C241.668 744.083 229.59 745.013 217.515 744.587C216.752 744.561 215.97 744.524 215.268 744.223C213.943 743.655 213.155 742.239 212.87 740.824C212.231 737.651 213.691 734.346 215.904 731.986C218.117 729.626 221.006 728.037 223.844 726.488C226.798 724.875 230.077 723.208 233.37 723.897C235.561 724.355 237.444 725.798 239.297 727.219ZM337.019 802.497C329.201 802.336 322.427 795.949 320.106 788.471C319.632 786.944 320.618 785.27 321.977 784.431C323.337 783.593 324.982 783.395 326.568 783.217L338.023 781.928C334.54 775.148 332.059 767.852 330.686 760.351C330.561 759.671 330.448 758.956 330.662 758.299C331.04 757.145 332.282 756.537 333.431 756.15C342.738 753.018 353.914 756.821 359.387 764.984C364.86 773.147 364.142 784.946 357.719 792.383C354.938 795.602 351.293 797.978 347.454 799.807C344.181 801.366 340.643 802.572 337.019 802.497ZM374.118 762.196C375.508 766.796 375.91 771.634 376.102 776.437C372.978 775.963 369.823 775.694 366.664 775.632C366.046 767.555 360.677 760.256 353.619 756.297C346.561 752.338 338.041 751.483 330.065 752.838C329.998 751.699 329.79 750.511 329.583 749.323C329.036 746.187 328.489 743.052 330.513 740.826C331.736 739.482 333.599 738.944 335.384 738.611C343.516 737.094 352.187 738.684 359.254 742.987C366.322 747.291 371.721 754.268 374.118 762.196ZM316.779 787.656C316.766 787.805 316.754 787.952 316.747 788.092C316.694 789.208 317.214 790.232 317.728 791.246C317.866 791.517 318.003 791.788 318.129 792.06C318.725 793.345 319.014 795.039 318.018 796.045C315.608 798.481 313.478 801.195 311.685 804.116C311.241 804.838 310.149 804.897 309.42 804.466C308.69 804.036 308.238 803.267 307.816 802.532C305.15 797.876 302.417 793.007 302.084 787.65C302.043 786.984 302.116 786.178 302.706 785.868C302.966 785.731 303.273 785.727 303.566 785.726L315.491 785.69C315.776 785.689 316.076 785.692 316.323 785.833C316.909 786.166 316.842 786.939 316.779 787.656Z" fill="#122E82"/>
<path d="M320 285.296L184.498 324.032L230.08 190.634L94.5776 229.37L140.187 96L4.4641 134.836L0 149.428L120.149 115.041L74.5403 248.411L210.042 209.675L164.461 343.073L299.963 304.337L259.76 422L274.782 417.636L320 285.296Z" fill="#FF9500"/>
<path d="M291.776 13.1886C288.203 13.1886 285.27 10.2502 285.27 6.59431C285.27 2.97257 288.169 0 291.776 0C295.384 0 298.283 2.9384 298.283 6.59431C298.283 10.2161 295.35 13.1886 291.776 13.1886Z" fill="white"/>
<path d="M352.935 13.1886C349.362 13.1886 346.429 10.2502 346.429 6.59431C346.429 2.97257 349.328 0 352.935 0C356.509 0 359.442 2.9384 359.442 6.59431C359.408 10.2161 356.509 13.1886 352.935 13.1886Z" fill="white"/>
<path d="M414.055 13.1886C410.481 13.1886 407.548 10.2502 407.548 6.59431C407.548 2.97257 410.447 0 414.055 0C417.628 0 420.561 2.9384 420.561 6.59431C420.561 10.2161 417.662 13.1886 414.055 13.1886Z" fill="white"/>
<path d="M475.213 13.1886C471.639 13.1886 468.706 10.2502 468.706 6.59431C468.706 2.97257 471.606 0 475.213 0C478.787 0 481.72 2.9384 481.72 6.59431C481.72 10.2161 478.787 13.1886 475.213 13.1886Z" fill="white"/>
<path d="M536.332 13.1886C532.758 13.1886 529.825 10.2502 529.825 6.59431C529.825 2.97257 532.725 0 536.332 0C539.906 0 542.839 2.9384 542.839 6.59431C542.839 10.2161 539.94 13.1886 536.332 13.1886Z" fill="white"/>
<path d="M597.491 13.1886C593.917 13.1886 590.984 10.2502 590.984 6.59431C590.984 2.97257 593.884 0 597.491 0C601.098 0 603.998 2.9384 603.998 6.59431C603.998 10.2161 601.065 13.1886 597.491 13.1886Z" fill="white"/>
<path d="M291.776 69.7006C288.203 69.7006 285.27 66.7622 285.27 63.1063C285.27 59.4846 288.169 56.512 291.776 56.512C295.384 56.512 298.283 59.4504 298.283 63.1063C298.283 66.7281 295.35 69.7006 291.776 69.7006Z" fill="white"/>
<path d="M352.935 69.7011C349.362 69.7011 346.429 66.7627 346.429 63.1068C346.429 59.4851 349.328 56.5125 352.935 56.5125C356.509 56.5125 359.442 59.4509 359.442 63.1068C359.408 66.7286 356.509 69.7011 352.935 69.7011Z" fill="white"/>
<path d="M414.055 69.7011C410.481 69.7011 407.548 66.7627 407.548 63.1068C407.548 59.4851 410.447 56.5125 414.055 56.5125C417.628 56.5125 420.561 59.4509 420.561 63.1068C420.561 66.7286 417.662 69.7011 414.055 69.7011Z" fill="white"/>
<path d="M475.213 69.7011C471.639 69.7011 468.706 66.7627 468.706 63.1068C468.706 59.4851 471.606 56.5125 475.213 56.5125C478.787 56.5125 481.72 59.4509 481.72 63.1068C481.72 66.7286 478.787 69.7011 475.213 69.7011Z" fill="white"/>
<path d="M536.332 69.7011C532.758 69.7011 529.825 66.7627 529.825 63.1068C529.825 59.4851 532.725 56.5125 536.332 56.5125C539.906 56.5125 542.839 59.4509 542.839 63.1068C542.839 66.7286 539.94 69.7011 536.332 69.7011Z" fill="white"/>
<path d="M597.491 69.7011C593.917 69.7011 590.984 66.7627 590.984 63.1068C590.984 59.4851 593.884 56.5125 597.491 56.5125C601.098 56.5125 603.998 59.4509 603.998 63.1068C603.998 66.7286 601.065 69.7011 597.491 69.7011Z" fill="white"/>
<path d="M291.776 126.18C288.203 126.18 285.27 123.242 285.27 119.586C285.27 115.964 288.169 112.992 291.776 112.992C295.384 112.992 298.283 115.93 298.283 119.586C298.283 123.242 295.35 126.18 291.776 126.18Z" fill="white"/>
<path d="M352.935 126.18C349.362 126.18 346.429 123.242 346.429 119.586C346.429 115.964 349.328 112.991 352.935 112.991C356.509 112.991 359.442 115.93 359.442 119.586C359.408 123.242 356.509 126.18 352.935 126.18Z" fill="white"/>
<path d="M414.055 126.18C410.481 126.18 407.548 123.242 407.548 119.586C407.548 115.964 410.447 112.991 414.055 112.991C417.628 112.991 420.561 115.93 420.561 119.586C420.561 123.242 417.662 126.18 414.055 126.18Z" fill="white"/>
<path d="M475.213 126.18C471.639 126.18 468.706 123.242 468.706 119.586C468.706 115.964 471.606 112.991 475.213 112.991C478.787 112.991 481.72 115.93 481.72 119.586C481.72 123.242 478.787 126.18 475.213 126.18Z" fill="white"/>
<path d="M536.332 126.18C532.758 126.18 529.825 123.242 529.825 119.586C529.825 115.964 532.725 112.991 536.332 112.991C539.906 112.991 542.839 115.93 542.839 119.586C542.839 123.242 539.94 126.18 536.332 126.18Z" fill="white"/>
<path d="M597.491 126.18C593.917 126.18 590.984 123.242 590.984 119.586C590.984 115.964 593.884 112.991 597.491 112.991C601.098 112.991 603.998 115.93 603.998 119.586C603.998 123.242 601.065 126.18 597.491 126.18Z" fill="white"/>
<path d="M291.776 182.693C288.203 182.693 285.27 179.755 285.27 176.099C285.27 172.477 288.169 169.504 291.776 169.504C295.384 169.504 298.283 172.443 298.283 176.099C298.283 179.72 295.35 182.693 291.776 182.693Z" fill="white"/>
<path d="M352.935 182.693C349.362 182.693 346.429 179.755 346.429 176.099C346.429 172.477 349.328 169.505 352.935 169.505C356.509 169.505 359.442 172.443 359.442 176.099C359.408 179.721 356.509 182.693 352.935 182.693Z" fill="white"/>
<path d="M414.055 182.693C410.481 182.693 407.548 179.755 407.548 176.099C407.548 172.477 410.447 169.505 414.055 169.505C417.628 169.505 420.561 172.443 420.561 176.099C420.561 179.721 417.662 182.693 414.055 182.693Z" fill="white"/>
<path d="M475.213 182.693C471.639 182.693 468.706 179.755 468.706 176.099C468.706 172.477 471.606 169.505 475.213 169.505C478.787 169.505 481.72 172.443 481.72 176.099C481.72 179.721 478.787 182.693 475.213 182.693Z" fill="white"/>
<path d="M536.332 182.693C532.758 182.693 529.825 179.755 529.825 176.099C529.825 172.477 532.725 169.505 536.332 169.505C539.906 169.505 542.839 172.443 542.839 176.099C542.839 179.721 539.94 182.693 536.332 182.693Z" fill="white"/>
<path d="M597.491 182.693C593.917 182.693 590.984 179.755 590.984 176.099C590.984 172.477 593.884 169.505 597.491 169.505C601.098 169.505 603.998 172.443 603.998 176.099C603.998 179.721 601.065 182.693 597.491 182.693Z" fill="white"/>
<path d="M291.776 239.206C288.203 239.206 285.27 236.268 285.27 232.612C285.27 228.99 288.169 226.018 291.776 226.018C295.384 226.018 298.283 228.956 298.283 232.612C298.283 236.234 295.35 239.206 291.776 239.206Z" fill="white"/>
<path d="M352.935 239.206C349.362 239.206 346.429 236.268 346.429 232.612C346.429 228.99 349.328 226.017 352.935 226.017C356.509 226.017 359.442 228.956 359.442 232.612C359.408 236.233 356.509 239.206 352.935 239.206Z" fill="white"/>
<path d="M414.055 239.206C410.481 239.206 407.548 236.268 407.548 232.612C407.548 228.99 410.447 226.017 414.055 226.017C417.628 226.017 420.561 228.956 420.561 232.612C420.561 236.233 417.662 239.206 414.055 239.206Z" fill="white"/>
<path d="M475.213 239.206C471.639 239.206 468.706 236.268 468.706 232.612C468.706 228.99 471.606 226.017 475.213 226.017C478.787 226.017 481.72 228.956 481.72 232.612C481.72 236.233 478.787 239.206 475.213 239.206Z" fill="white"/>
<path d="M536.332 239.206C532.758 239.206 529.825 236.268 529.825 232.612C529.825 228.99 532.725 226.017 536.332 226.017C539.906 226.017 542.839 228.956 542.839 232.612C542.839 236.233 539.94 239.206 536.332 239.206Z" fill="white"/>
<path d="M597.491 239.206C593.917 239.206 590.984 236.268 590.984 232.612C590.984 228.99 593.884 226.017 597.491 226.017C601.098 226.017 603.998 228.956 603.998 232.612C603.998 236.233 601.065 239.206 597.491 239.206Z" fill="white"/>
<path d="M291.776 295.684C288.203 295.684 285.27 292.746 285.27 289.09C285.27 285.468 288.169 282.496 291.776 282.496C295.384 282.496 298.283 285.434 298.283 289.09C298.283 292.746 295.35 295.684 291.776 295.684Z" fill="white"/>
<path d="M352.935 295.684C349.362 295.684 346.429 292.746 346.429 289.09C346.429 285.468 349.328 282.496 352.935 282.496C356.509 282.496 359.442 285.434 359.442 289.09C359.408 292.746 356.509 295.684 352.935 295.684Z" fill="white"/>
<path d="M414.055 295.684C410.481 295.684 407.548 292.746 407.548 289.09C407.548 285.468 410.447 282.496 414.055 282.496C417.628 282.496 420.561 285.434 420.561 289.09C420.561 292.746 417.662 295.684 414.055 295.684Z" fill="white"/>
<path d="M475.213 295.684C471.639 295.684 468.706 292.746 468.706 289.09C468.706 285.468 471.606 282.496 475.213 282.496C478.787 282.496 481.72 285.434 481.72 289.09C481.72 292.746 478.787 295.684 475.213 295.684Z" fill="white"/>
<path d="M536.332 295.684C532.758 295.684 529.825 292.746 529.825 289.09C529.825 285.468 532.725 282.496 536.332 282.496C539.906 282.496 542.839 285.434 542.839 289.09C542.839 292.746 539.94 295.684 536.332 295.684Z" fill="white"/>
<path d="M597.491 295.684C593.917 295.684 590.984 292.746 590.984 289.09C590.984 285.468 593.884 282.496 597.491 282.496C601.098 282.496 603.998 285.434 603.998 289.09C603.998 292.746 601.065 295.684 597.491 295.684Z" fill="white"/>
<path d="M570.736 340L284 49.4059H570.736V340Z" fill="#FF9500"/>
</svg>
