<svg width="120" height="120" viewBox="0 0 120 120" fill="none" xmlns="http://www.w3.org/2000/svg">
<path fill-rule="evenodd" clip-rule="evenodd" d="M68.6051 105.716L111.462 81.177C116.747 78.1508 120 72.5783 120 66.5494L120 18.776C120 13.5569 114.263 10.3035 109.692 12.93L68.628 36.5268C63.2951 39.591 56.7045 39.591 51.3716 36.5268L10.3085 12.93C5.73716 10.3035 0.000144607 13.5569 0.000144607 18.776L0 66.5494C0 72.5783 3.25279 78.1508 8.53804 81.177L51.3949 105.716C56.7161 108.762 63.2839 108.762 68.6051 105.716ZM58.2941 54.7084L25.5393 36.1567C24.3962 35.5097 22.9712 36.3233 22.9712 37.6238V74.5335C22.9712 75.7369 23.6191 76.8495 24.6722 77.4555L30.6792 80.9122C31.8218 81.57 33.2569 80.757 33.2569 79.4516V55.2199C33.2569 53.9183 34.6853 53.1045 35.8279 53.7551L58.2847 66.537C59.3464 67.1408 60.6532 67.1404 61.7141 66.5359L95.3794 47.3423C96.4399 46.7378 97.0924 45.6218 97.0924 44.4135V37.6211C97.0924 36.3214 95.6689 35.5073 94.5259 36.1538L61.7059 54.7095C60.6491 55.3069 59.3509 55.3061 58.2941 54.7084ZM58.2772 71.6423L38.9167 60.5696C37.7741 59.9164 36.343 60.7298 36.343 62.0329V68.9816C36.343 70.1876 36.9938 71.3021 38.0513 71.9078L58.2765 83.4803C59.3419 84.09 60.6574 84.0889 61.722 83.4772L81.8599 71.9085C82.9144 71.3021 83.5631 70.1891 83.5631 68.9854V62.0389C83.5631 60.7343 82.1295 59.9209 80.9865 60.5771L61.7212 71.6393C60.657 72.2501 59.3426 72.2516 58.2772 71.6423Z" fill="#1B3992"/>
</svg>
