<?xml version="1.0" standalone="no"?>
<!DOCTYPE svg PUBLIC "-//W3C//DTD SVG 20010904//EN"
 "http://www.w3.org/TR/2001/REC-SVG-20010904/DTD/svg10.dtd">
<svg version="1.0" xmlns="http://www.w3.org/2000/svg"
 width="400.000000pt" height="400.000000pt" viewBox="0 0 400.000000 400.000000"
 preserveAspectRatio="xMidYMid meet">
<metadata>
Created by potrace 1.14, written by Peter Selinger 2001-2017
</metadata>
<g transform="translate(0.000000,400.000000) scale(0.100000,-0.100000)"
fill="#000000" stroke="none">
<path d="M151 3586 c-49 -17 -108 -71 -131 -119 -19 -41 -19 -64 -17 -922 l2
-880 24 -64 c30 -80 95 -177 156 -233 37 -34 507 -313 765 -455 25 -13 59 -32
75 -42 295 -175 745 -424 795 -441 134 -45 309 -34 430 28 47 25 516 292 965
550 72 41 139 80 150 86 379 214 402 229 476 298 64 60 124 174 149 281 6 25
9 387 10 897 0 836 -1 856 -20 896 -40 81 -125 134 -215 134 -32 0 -64 -11
-117 -39 -94 -49 -170 -92 -183 -101 -5 -4 -149 -88 -320 -185 -170 -98 -323
-186 -340 -197 -16 -10 -37 -21 -45 -25 -8 -4 -122 -69 -253 -145 -132 -75
-267 -148 -301 -162 -110 -44 -223 -51 -351 -22 -53 11 -137 55 -465 244 -195
113 -375 216 -400 230 -25 14 -162 93 -305 175 -385 222 -380 220 -444 223
-31 1 -71 -3 -90 -10z m963 -940 c149 -85 372 -211 496 -281 124 -70 245 -139
270 -153 80 -46 95 -52 119 -52 21 0 78 28 209 102 17 10 49 28 70 39 20 12
89 51 152 87 134 76 469 264 552 311 32 17 84 47 115 66 63 38 103 44 124 18
17 -19 21 -261 6 -306 -9 -28 -32 -47 -107 -89 -25 -14 -90 -51 -145 -83 -55
-31 -118 -67 -140 -80 -49 -27 -64 -36 -290 -165 -99 -56 -209 -119 -245 -138
-36 -19 -76 -43 -90 -52 -72 -48 -181 -100 -211 -100 -33 0 -51 9 -404 210
-93 53 -190 108 -215 122 -25 14 -76 43 -115 65 -96 55 -110 58 -134 34 -21
-21 -21 -31 -21 -445 0 -373 -2 -426 -16 -440 -31 -31 -48 -27 -182 51 -62 36
-120 76 -129 90 -15 22 -16 93 -17 670 0 621 1 646 19 659 10 8 28 14 38 14
11 0 141 -69 291 -154z m490 -840 c381 -219 379 -218 426 -202 19 7 148 77
285 156 454 261 414 242 450 214 18 -13 20 -27 20 -162 -1 -131 -3 -150 -20
-174 -11 -14 -105 -75 -209 -134 -104 -60 -212 -122 -241 -139 -246 -142 -291
-164 -325 -160 -18 3 -72 27 -119 54 -47 27 -104 59 -126 71 -22 12 -112 64
-200 115 -88 51 -189 108 -225 128 -102 55 -110 72 -110 238 0 126 2 141 20
159 11 11 27 20 36 20 9 0 161 -83 338 -184z"/>
</g>
</svg>
