<svg width="180" height="68" viewBox="0 0 180 68" fill="none" xmlns="http://www.w3.org/2000/svg">
<path fill-rule="evenodd" clip-rule="evenodd" d="M25.7269 51.1432L41.7982 41.941C43.7802 40.8063 45 38.7165 45 36.4557L44.9998 18.5407C44.9998 16.5836 42.8485 15.3635 41.1343 16.3485L25.7355 25.1973C23.7357 26.3464 21.2642 26.3464 19.2643 25.1973L3.8657 16.3485C2.15144 15.3635 5.42277e-05 16.5836 5.42277e-05 18.5407L0 36.4557C0 38.7165 1.2198 40.8063 3.20176 41.941L19.2731 51.1432C21.2685 52.2856 23.7315 52.2856 25.7269 51.1432ZM21.8603 32.0153L9.57722 25.0585C9.14857 24.8159 8.61421 25.121 8.61421 25.6086V39.4498C8.61421 39.9011 8.85715 40.3183 9.25209 40.5455L11.5047 41.8418C11.9332 42.0884 12.4713 41.7835 12.4713 41.2941V32.2072C12.4713 31.719 13.007 31.4139 13.4354 31.6578L21.8568 36.451C22.2549 36.6775 22.7449 36.6773 23.1428 36.4507L35.7672 29.253C36.1649 29.0264 36.4097 28.6079 36.4097 28.1549V25.6077C36.4097 25.1202 35.8759 24.815 35.4472 25.0574L23.1397 32.0158C22.7435 32.2398 22.2565 32.2396 21.8603 32.0153ZM21.8539 38.3655L14.5938 34.2133C14.1654 33.9683 13.6286 34.2734 13.6286 34.7621V37.3678C13.6286 37.8201 13.8727 38.2381 14.2692 38.4651L21.8537 42.8049C22.2532 43.0335 22.7466 43.0331 23.1457 42.8038L30.6974 38.4654C31.0929 38.2381 31.3362 37.8207 31.3362 37.3692V34.7643C31.3362 34.275 30.7986 33.9701 30.3699 34.2162L23.1455 38.3644C22.7464 38.5936 22.2534 38.5941 21.8539 38.3655Z" fill="white"/>
<path d="M68.3773 26.8509H59.4164V32.1837H68.1212V36.4242H59.4164V45.098H55V22.6104H68.3773V26.8509ZM73.4515 27.1079C72.7689 27.1079 72.1714 26.8616 71.6594 26.369C71.1687 25.855 70.9233 25.2553 70.9233 24.57C70.9233 23.8847 71.1687 23.285 71.6594 22.771C72.1714 22.257 72.7689 22 73.4515 22C74.1556 22 74.7531 22.257 75.2437 22.771C75.7558 23.285 76.0118 23.8847 76.0118 24.57C76.0118 25.2553 75.7558 25.855 75.2437 26.369C74.7531 26.8616 74.1556 27.1079 73.4515 27.1079ZM71.4033 45.098V29.0354H75.5317V45.098H71.4033ZM88.2073 28.5857C89.9566 28.5857 91.3968 29.1746 92.5277 30.3526C93.6798 31.5305 94.2558 33.1581 94.2558 35.2356V45.098H90.1274V35.7496C90.1274 34.6788 89.8394 33.8649 89.2634 33.3081C88.6873 32.7298 87.9192 32.4407 86.9591 32.4407C85.8923 32.4407 85.039 32.7726 84.3989 33.4366C83.7588 34.1006 83.4388 35.0964 83.4388 36.4242V45.098H79.3104V29.0354H83.4388V30.8344C84.4415 29.3352 86.0311 28.5857 88.2073 28.5857ZM119.895 22.6104V45.098H115.511V30.5132L109.206 40.9539H108.694L102.389 30.5453V45.098H97.9729V22.6104H102.517L108.95 33.2438L115.35 22.6104H119.895ZM136.038 29.0354H140.167V45.098H136.038V43.2027C134.801 44.7661 133.062 45.5478 130.822 45.5478C128.688 45.5478 126.853 44.734 125.317 43.1063C123.802 41.4572 123.045 39.444 123.045 37.0667C123.045 34.6895 123.802 32.6871 125.317 31.0593C126.853 29.4103 128.688 28.5857 130.822 28.5857C133.062 28.5857 134.801 29.3673 136.038 30.9308V29.0354ZM128.422 40.3435C129.254 41.1788 130.31 41.5964 131.59 41.5964C132.87 41.5964 133.926 41.1788 134.758 40.3435C135.611 39.4868 136.038 38.3945 136.038 37.0667C136.038 35.739 135.611 34.6573 134.758 33.8221C133.926 32.9654 132.87 32.5371 131.59 32.5371C130.31 32.5371 129.254 32.9654 128.422 33.8221C127.589 34.6573 127.173 35.739 127.173 37.0667C127.173 38.3945 127.589 39.4868 128.422 40.3435ZM146.191 27.1079C145.487 27.1079 144.878 26.8616 144.366 26.369C143.876 25.855 143.63 25.2553 143.63 24.57C143.63 23.8847 143.876 23.285 144.366 22.771C144.878 22.257 145.487 22 146.191 22C146.873 22 147.46 22.257 147.951 22.771C148.463 23.285 148.719 23.8847 148.719 24.57C148.719 25.2553 148.463 25.855 147.951 26.369C147.46 26.8616 146.873 27.1079 146.191 27.1079ZM144.11 45.4193V29.0354H148.239V45.4193C148.239 47.7751 147.663 49.4886 146.511 50.5593C145.38 51.6516 143.63 52.1228 141.262 51.9728V47.9893C142.244 48.0536 142.958 47.8823 143.406 47.4753C143.876 47.0683 144.11 46.3831 144.11 45.4193ZM165.638 43.1063C163.995 44.734 161.99 45.5478 159.621 45.5478C157.253 45.5478 155.248 44.734 153.605 43.1063C151.983 41.4572 151.173 39.444 151.173 37.0667C151.173 34.6895 151.983 32.6871 153.605 31.0593C155.248 29.4103 157.253 28.5857 159.621 28.5857C161.99 28.5857 163.995 29.4103 165.638 31.0593C167.281 32.6871 168.101 34.6895 168.101 37.0667C168.101 39.444 167.281 41.4572 165.638 43.1063ZM156.517 40.2471C157.349 41.0824 158.384 41.5 159.621 41.5C160.859 41.5 161.894 41.0824 162.726 40.2471C163.558 39.4119 163.973 38.3517 163.973 37.0667C163.973 35.7817 163.558 34.7216 162.726 33.8863C161.894 33.0511 160.859 32.6335 159.621 32.6335C158.384 32.6335 157.349 33.0511 156.517 33.8863C155.706 34.7216 155.301 35.7817 155.301 37.0667C155.301 38.3517 155.706 39.4119 156.517 40.2471ZM175.135 31.7982C175.52 30.7702 176.149 29.9992 177.023 29.4852C177.92 28.9712 178.91 28.7142 180 28.7142V33.3402C178.741 33.1902 177.611 33.4472 176.607 34.1112C175.626 34.7752 175.135 35.8781 175.135 37.4201V45.098H171.007V29.0354H175.135V31.7982Z" fill="white"/>
</svg>
